<?xml version="1.0" encoding="UTF-8" ?>
<!DOCTYPE svg PUBLIC "-//W3C//DTD SVG 1.1//EN" "http://www.w3.org/Graphics/SVG/1.1/DTD/svg11.dtd">
<svg width="1200pt" height="600pt" viewBox="0 0 1200 600" version="1.1" xmlns="http://www.w3.org/2000/svg">
<g id="#ed174fff">
<path fill="#ed174f" opacity="1.00" d=" M 168.60 108.83 C 203.29 105.00 238.99 111.29 270.37 126.52 C 303.43 142.41 331.48 168.41 350.09 199.99 C 366.89 228.30 376.11 261.08 376.38 294.00 C 376.81 336.40 362.34 378.82 335.91 412.00 C 312.72 441.37 280.52 463.46 244.83 474.69 C 219.17 482.79 191.74 485.39 165.04 481.93 C 136.49 478.31 108.76 468.10 84.80 452.13 C 56.68 433.52 33.83 407.11 19.29 376.71 C 3.57 344.06 -2.56 306.79 2.37 270.87 C 6.91 236.16 21.43 202.80 43.84 175.90 C 74.66 138.52 120.41 113.92 168.60 108.83 M 174.56 131.84 C 136.12 135.12 99.10 152.45 71.95 179.85 C 48.83 202.90 33.12 233.12 27.14 265.19 C 21.65 294.04 24.22 324.34 34.41 351.88 C 45.54 382.20 65.76 409.14 91.92 428.11 C 120.40 448.91 155.74 460.12 191.01 459.51 C 239.84 458.94 287.68 435.08 317.67 396.57 C 339.84 368.44 352.27 332.84 352.57 297.04 C 352.89 268.84 345.69 240.61 331.98 215.98 C 317.72 190.05 296.27 168.13 270.64 153.35 C 241.79 136.65 207.78 128.97 174.56 131.84 Z" />
<path fill="#ed174f" opacity="1.00" d=" M 175.20 144.15 C 208.38 141.11 242.47 149.53 270.46 167.59 C 295.96 183.91 316.24 208.13 328.07 235.98 C 338.95 261.36 342.78 289.76 338.73 317.09 C 334.52 346.45 321.50 374.49 301.65 396.53 C 278.99 421.96 247.55 439.36 213.97 445.04 C 182.48 450.58 149.31 445.59 120.71 431.32 C 94.77 418.46 72.79 397.88 58.04 372.98 C 41.69 345.56 34.16 312.89 37.29 281.09 C 40.15 250.28 52.73 220.46 72.86 196.96 C 98.34 166.91 135.93 147.48 175.20 144.15 M 165.68 181.79 C 155.30 185.66 147.79 195.42 145.55 206.12 C 145.14 208.10 146.69 209.83 148.47 210.45 C 151.21 211.44 154.08 212.57 157.05 212.46 C 159.59 211.70 159.87 208.77 160.81 206.71 C 163.33 199.54 170.11 193.80 177.85 193.51 C 187.60 193.03 198.48 198.52 201.27 208.40 C 204.16 218.48 199.42 228.41 196.98 238.04 C 189.01 235.75 181.07 233.35 173.05 231.23 C 163.51 228.73 152.81 229.09 144.19 234.26 C 136.49 238.75 131.49 246.79 129.22 255.26 C 126.53 263.55 126.26 272.94 130.11 280.93 C 134.92 291.15 145.08 297.98 155.79 300.82 C 150.70 306.69 147.51 313.92 145.58 321.39 C 141.37 336.31 136.97 351.18 132.82 366.12 C 129.77 377.49 131.04 390.80 139.22 399.80 C 145.49 406.93 154.60 411.04 163.83 412.65 C 173.29 414.36 183.56 412.24 191.16 406.25 C 197.55 401.25 202.00 393.86 203.75 385.97 C 204.50 382.58 200.84 380.95 198.17 380.37 C 195.74 379.82 192.55 378.13 190.56 380.48 C 188.81 383.51 188.21 387.12 186.13 390.00 C 182.18 396.31 174.60 400.00 167.20 399.29 C 159.89 398.56 152.34 395.00 148.63 388.39 C 145.02 382.03 145.63 374.20 147.56 367.40 C 151.82 352.64 156.03 337.87 160.27 323.11 C 161.79 317.96 164.24 312.93 168.17 309.20 C 178.72 299.29 198.62 304.41 203.49 317.94 C 205.55 323.10 204.80 328.79 203.53 334.04 C 202.76 336.81 205.75 338.28 207.94 338.82 C 210.92 339.65 215.09 341.63 217.25 338.28 C 220.00 332.25 219.96 325.30 219.21 318.82 C 229.37 320.83 240.56 318.56 248.47 311.67 C 254.50 306.41 258.95 298.98 260.08 291.03 C 258.94 286.70 253.49 286.61 249.94 285.60 C 246.78 285.08 245.75 288.68 244.95 291.00 C 242.42 298.72 235.36 305.04 227.09 305.57 C 217.95 306.23 207.80 301.71 203.99 293.00 C 201.10 286.41 202.18 278.92 204.16 272.23 C 208.26 257.97 212.28 243.68 216.46 229.44 C 218.68 221.88 223.29 214.10 231.13 211.44 C 238.83 208.98 247.78 210.93 253.98 216.06 C 259.89 221.03 262.28 229.43 260.45 236.86 C 260.08 239.17 258.62 242.31 261.17 243.90 C 263.61 245.21 266.36 245.84 269.05 246.44 C 271.44 247.13 273.70 245.15 274.22 242.91 C 277.28 232.96 276.31 221.46 270.18 212.83 C 262.80 202.19 249.59 196.82 236.94 196.54 C 229.07 196.33 221.35 199.15 215.21 204.01 C 212.36 195.12 205.36 188.01 196.97 184.14 C 187.33 179.58 175.82 177.82 165.68 181.79 Z" />
<path fill="#ed174f" opacity="1.00" d=" M 152.61 246.59 C 157.81 243.37 164.35 243.02 170.16 244.56 C 177.87 246.68 185.52 249.03 193.24 251.11 C 190.80 259.02 189.09 267.18 185.97 274.86 C 183.14 281.44 177.53 287.39 170.17 288.46 C 161.47 289.63 151.95 286.48 146.24 279.69 C 141.88 274.50 141.26 267.16 142.99 260.82 C 144.43 255.18 147.56 249.71 152.61 246.59 Z" />
</g>
<g id="#ffffffff">
<path fill="#ffffff" opacity="1.00" d=" M 174.56 131.84 C 207.78 128.97 241.79 136.65 270.64 153.35 C 296.27 168.13 317.72 190.05 331.98 215.98 C 345.69 240.61 352.89 268.84 352.57 297.04 C 352.27 332.84 339.84 368.44 317.67 396.57 C 287.68 435.08 239.84 458.94 191.01 459.51 C 155.74 460.12 120.40 448.91 91.92 428.11 C 65.76 409.14 45.54 382.20 34.41 351.88 C 24.22 324.34 21.65 294.04 27.14 265.19 C 33.12 233.12 48.83 202.90 71.95 179.85 C 99.10 152.45 136.12 135.12 174.56 131.84 M 175.20 144.15 C 135.93 147.48 98.34 166.91 72.86 196.96 C 52.73 220.46 40.15 250.28 37.29 281.09 C 34.16 312.89 41.69 345.56 58.04 372.98 C 72.79 397.88 94.77 418.46 120.71 431.32 C 149.31 445.59 182.48 450.58 213.97 445.04 C 247.55 439.36 278.99 421.96 301.65 396.53 C 321.50 374.49 334.52 346.45 338.73 317.09 C 342.78 289.76 338.95 261.36 328.07 235.98 C 316.24 208.13 295.96 183.91 270.46 167.59 C 242.47 149.53 208.38 141.11 175.20 144.15 Z" />
<path fill="#ffffff" opacity="1.00" d=" M 165.68 181.79 C 175.82 177.82 187.33 179.58 196.97 184.14 C 205.36 188.01 212.36 195.12 215.21 204.01 C 221.35 199.15 229.07 196.33 236.94 196.54 C 249.59 196.82 262.80 202.19 270.18 212.83 C 276.31 221.46 277.28 232.96 274.22 242.91 C 273.70 245.15 271.44 247.13 269.05 246.44 C 266.36 245.84 263.61 245.21 261.17 243.90 C 258.62 242.31 260.08 239.17 260.45 236.86 C 262.28 229.43 259.89 221.03 253.98 216.06 C 247.78 210.93 238.83 208.98 231.13 211.44 C 223.29 214.10 218.68 221.88 216.46 229.44 C 212.28 243.68 208.26 257.97 204.16 272.23 C 202.18 278.92 201.10 286.41 203.99 293.00 C 207.80 301.71 217.95 306.23 227.09 305.57 C 235.36 305.04 242.42 298.72 244.95 291.00 C 245.75 288.68 246.78 285.08 249.94 285.60 C 253.49 286.61 258.94 286.70 260.08 291.03 C 258.95 298.98 254.50 306.41 248.47 311.67 C 240.56 318.56 229.37 320.83 219.21 318.82 C 219.96 325.30 220.00 332.25 217.25 338.28 C 215.09 341.63 210.92 339.65 207.94 338.82 C 205.75 338.28 202.76 336.81 203.53 334.04 C 204.80 328.79 205.55 323.10 203.49 317.94 C 198.62 304.41 178.72 299.29 168.17 309.20 C 164.24 312.93 161.79 317.96 160.27 323.11 C 156.03 337.87 151.82 352.64 147.56 367.40 C 145.63 374.20 145.02 382.03 148.63 388.39 C 152.34 395.00 159.89 398.56 167.20 399.29 C 174.60 400.00 182.18 396.31 186.13 390.00 C 188.21 387.12 188.81 383.51 190.56 380.48 C 192.55 378.13 195.74 379.82 198.17 380.37 C 200.84 380.95 204.50 382.58 203.75 385.97 C 202.00 393.86 197.55 401.25 191.16 406.25 C 183.56 412.24 173.29 414.36 163.83 412.65 C 154.60 411.04 145.49 406.93 139.22 399.80 C 131.04 390.80 129.77 377.49 132.82 366.12 C 136.97 351.18 141.37 336.31 145.58 321.39 C 147.51 313.92 150.70 306.69 155.79 300.82 C 145.08 297.98 134.92 291.15 130.11 280.93 C 126.26 272.94 126.53 263.55 129.22 255.26 C 131.49 246.79 136.49 238.75 144.19 234.26 C 152.81 229.09 163.51 228.73 173.05 231.23 C 181.07 233.35 189.01 235.75 196.98 238.04 C 199.42 228.41 204.16 218.48 201.27 208.40 C 198.48 198.52 187.60 193.03 177.85 193.51 C 170.11 193.80 163.33 199.54 160.81 206.71 C 159.87 208.77 159.59 211.70 157.05 212.46 C 154.08 212.57 151.21 211.44 148.47 210.45 C 146.69 209.83 145.14 208.10 145.55 206.12 C 147.79 195.42 155.30 185.66 165.68 181.79 M 152.61 246.59 C 147.56 249.71 144.43 255.18 142.99 260.82 C 141.26 267.16 141.88 274.50 146.24 279.69 C 151.95 286.48 161.47 289.63 170.17 288.46 C 177.53 287.39 183.14 281.44 185.97 274.86 C 189.09 267.18 190.80 259.02 193.24 251.11 C 185.52 249.03 177.87 246.68 170.16 244.56 C 164.35 243.02 157.81 243.37 152.61 246.59 Z" />
</g>
<g id="#010000e6">
<path fill="#010000" opacity="0.90" d=" M 712.94 264.71 C 714.98 264.48 717.04 264.50 719.09 264.78 C 719.56 284.48 719.09 304.20 719.32 323.90 C 719.45 325.88 719.99 328.26 721.95 329.22 C 724.44 330.58 727.35 329.56 730.04 329.69 C 731.65 331.25 731.66 335.25 728.92 335.66 C 724.52 336.42 719.24 336.43 715.84 333.09 C 712.46 329.66 712.73 324.49 712.70 320.04 C 712.89 301.60 712.43 283.14 712.94 264.71 Z" />
<path fill="#010000" opacity="0.90" d=" M 889.06 264.94 C 890.99 264.03 895.17 263.81 894.99 266.91 C 895.04 285.62 894.95 304.33 895.03 323.04 C 894.99 325.51 895.71 328.62 898.33 329.53 C 900.89 330.83 904.13 328.63 906.46 330.37 C 906.95 331.91 907.05 333.69 906.12 335.11 C 902.08 336.57 897.24 336.49 893.39 334.50 C 889.38 332.23 888.44 327.22 888.44 322.99 C 888.42 305.32 888.49 287.64 888.41 269.97 C 888.49 268.29 888.21 266.48 889.06 264.94 Z" />
<path fill="#010000" opacity="0.90" d=" M 1180.96 269.03 C 1181.05 267.53 1180.61 265.69 1182.03 264.64 C 1184.11 264.09 1187.83 264.06 1187.53 267.15 C 1187.61 285.78 1187.52 304.41 1187.56 323.05 C 1187.60 325.39 1188.05 328.44 1190.57 329.40 C 1193.26 330.46 1196.26 329.66 1199.09 329.73 C 1199.10 331.49 1199.12 333.26 1199.15 335.03 C 1194.80 336.38 1189.71 336.72 1185.66 334.32 C 1182.17 332.22 1181.02 327.90 1181.00 324.07 C 1180.97 305.72 1181.05 287.38 1180.96 269.03 Z" />
<path fill="#010000" opacity="0.90" d=" M 491.62 266.41 C 492.71 264.81 495.32 265.35 496.95 265.80 C 498.49 267.81 497.85 270.63 497.67 272.97 C 497.57 274.83 495.30 274.93 493.90 274.87 C 489.88 274.66 490.97 269.01 491.62 266.41 Z" />
<path fill="#010000" opacity="0.90" d=" M 1160.30 266.94 C 1161.23 264.73 1164.12 265.31 1165.97 265.78 C 1167.71 268.30 1166.58 271.60 1166.45 274.44 C 1164.60 274.55 1162.51 275.38 1160.88 274.18 C 1159.62 272.02 1160.12 269.31 1160.30 266.94 Z" />
<path fill="#010000" opacity="0.90" d=" M 739.05 271.96 C 739.15 269.09 742.97 269.80 744.85 270.35 C 746.33 274.21 745.26 278.60 745.52 282.68 C 750.00 282.73 754.48 282.60 758.95 282.97 C 759.04 284.72 759.13 286.48 759.24 288.24 C 754.75 289.31 750.12 288.68 745.57 288.85 C 745.54 299.88 745.56 310.92 745.55 321.96 C 745.64 324.19 745.59 326.90 747.59 328.38 C 750.87 330.93 755.27 329.62 759.08 329.71 C 759.09 331.50 759.12 333.30 759.15 335.11 C 754.19 336.44 748.53 336.65 743.94 334.06 C 739.86 331.63 738.87 326.46 738.97 322.06 C 739.07 305.36 738.91 288.66 739.05 271.96 Z" />
<path fill="#010000" opacity="0.90" d=" M 413.04 283.02 C 420.25 280.12 429.98 281.93 434.14 288.97 C 437.64 295.03 436.30 302.33 436.55 309.00 C 436.30 315.94 437.72 323.60 433.77 329.79 C 428.94 337.17 418.11 338.29 410.76 334.26 C 400.67 328.77 400.91 311.40 411.41 306.48 C 417.20 303.80 423.78 304.93 429.94 304.77 C 429.90 300.65 430.55 296.20 428.54 292.42 C 425.43 286.41 415.45 286.13 412.05 291.98 C 410.97 294.18 410.73 296.66 410.18 299.02 C 408.39 299.02 406.61 299.02 404.83 299.02 C 402.81 292.66 406.95 285.38 413.04 283.02 M 416.24 311.31 C 410.60 312.97 408.59 320.12 410.85 325.14 C 413.79 332.06 425.33 332.39 428.62 325.61 C 430.83 321.02 429.73 315.75 429.99 310.84 C 425.41 310.99 420.75 310.35 416.24 311.31 Z" />
<path fill="#010000" opacity="0.90" d=" M 453.93 283.85 C 461.36 279.88 472.43 281.26 476.88 289.01 C 478.08 291.61 479.40 294.95 477.86 297.66 C 476.31 298.24 474.61 298.10 473.00 297.95 C 471.35 295.93 472.22 292.70 470.29 290.76 C 466.08 286.09 456.38 286.72 454.13 293.10 C 453.29 296.31 453.83 300.23 456.61 302.36 C 462.00 306.44 469.36 306.90 474.47 311.46 C 481.08 317.13 480.59 329.37 472.94 333.92 C 466.81 337.53 458.51 337.52 452.56 333.54 C 448.39 330.61 445.64 324.80 447.78 319.87 C 449.49 320.20 451.76 319.40 453.11 320.79 C 453.91 323.24 453.62 326.30 455.80 328.10 C 459.60 331.27 465.49 331.15 469.60 328.62 C 473.57 325.58 473.49 318.58 469.38 315.68 C 464.45 312.08 458.01 311.47 453.05 307.92 C 444.94 302.61 445.21 288.43 453.93 283.85 Z" />
<path fill="#010000" opacity="0.90" d=" M 519.14 283.08 C 525.86 280.36 534.73 281.57 539.37 287.52 C 542.40 291.27 542.89 296.32 542.85 300.97 C 542.78 307.33 542.91 313.69 542.80 320.06 C 542.64 325.35 540.57 330.98 535.90 333.90 C 528.14 338.71 515.98 337.07 511.47 328.58 C 508.10 321.58 509.28 311.51 516.34 307.21 C 522.32 303.54 529.60 305.10 536.22 304.63 C 536.06 300.73 536.66 296.60 535.07 292.91 C 532.31 286.67 522.31 285.93 518.57 291.57 C 517.13 293.62 517.32 296.28 516.47 298.56 C 514.78 299.51 512.65 298.78 510.80 298.93 C 509.46 292.53 513.05 285.52 519.14 283.08 M 517.34 325.62 C 520.68 332.29 532.29 332.18 535.11 325.10 C 536.89 320.58 535.97 315.58 536.14 310.85 C 531.46 311.01 526.65 310.26 522.07 311.45 C 516.52 313.42 514.84 320.71 517.34 325.62 Z" />
<path fill="#010000" opacity="0.90" d=" M 558.61 287.56 C 563.76 280.97 574.02 280.09 581.02 284.09 C 586.20 287.03 588.39 293.26 588.27 298.96 C 588.19 311.04 588.49 323.13 588.10 335.20 C 586.04 335.51 583.96 335.52 581.91 335.21 C 581.35 322.35 582.08 309.46 581.56 296.60 C 581.35 291.67 576.96 287.44 571.96 287.80 C 566.67 287.27 561.87 291.83 561.93 297.09 C 561.64 309.11 561.99 321.13 561.79 333.15 C 561.95 336.67 554.98 336.57 555.23 333.11 C 555.05 322.41 555.25 311.69 555.15 300.98 C 555.07 296.33 555.68 291.35 558.61 287.56 Z" />
<path fill="#010000" opacity="0.90" d=" M 623.73 289.68 C 629.02 279.30 646.31 278.96 652.09 289.04 C 653.65 291.99 654.79 295.52 653.95 298.86 C 652.66 300.24 650.23 300.05 648.58 299.45 C 647.17 297.20 647.79 294.07 646.10 291.86 C 642.39 285.84 631.85 286.59 629.27 293.28 C 627.43 298.67 628.58 304.49 628.28 310.06 C 628.54 315.15 627.42 320.57 629.49 325.39 C 632.26 331.56 641.97 332.26 645.80 326.82 C 647.59 324.53 647.66 321.50 648.07 318.75 C 650.08 318.47 652.12 318.50 654.14 318.80 C 654.42 322.82 653.83 327.07 651.34 330.37 C 644.97 339.15 629.28 338.58 623.95 328.97 C 620.63 322.86 622.00 315.65 621.73 309.01 C 621.98 302.57 620.71 295.66 623.73 289.68 Z" />
<path fill="#010000" opacity="0.90" d=" M 825.42 282.62 C 828.87 282.03 832.56 281.83 835.92 283.02 C 837.39 284.34 837.22 287.14 835.97 288.54 C 832.67 288.70 829.21 287.70 826.07 289.06 C 823.24 290.05 821.97 293.22 822.05 296.02 C 821.91 308.36 822.08 320.71 821.98 333.05 C 822.26 336.24 817.93 336.00 816.02 334.97 C 815.13 333.12 815.50 330.99 815.41 329.01 C 815.59 317.36 815.20 305.70 815.60 294.06 C 815.62 288.50 819.75 283.23 825.42 282.62 Z" />
<path fill="#010000" opacity="0.90" d=" M 852.10 283.10 C 859.28 280.12 869.00 281.83 873.27 288.79 C 876.92 294.89 875.59 302.28 875.83 309.03 C 875.60 316.01 876.98 323.73 872.92 329.93 C 868.15 337.08 857.68 338.18 850.42 334.51 C 840.25 329.36 839.96 312.37 849.91 306.88 C 855.81 303.64 862.78 305.06 869.21 304.66 C 869.06 300.73 869.67 296.58 868.06 292.88 C 865.28 286.67 855.31 285.95 851.57 291.56 C 850.16 293.61 850.27 296.22 849.51 298.52 C 847.86 299.52 845.70 298.78 843.87 298.97 C 842.37 292.60 846.04 285.56 852.10 283.10 M 850.34 325.61 C 853.67 332.27 865.22 332.19 868.09 325.16 C 869.90 320.62 868.96 315.60 869.14 310.85 C 864.48 311.02 859.69 310.26 855.12 311.43 C 849.54 313.36 847.83 320.69 850.34 325.61 Z" />
<path fill="#010000" opacity="0.90" d=" M 945.39 282.51 C 953.34 279.89 963.82 283.44 966.18 292.08 C 967.03 294.68 968.34 300.10 964.04 299.87 C 960.20 300.84 960.43 296.50 959.83 294.08 C 958.14 287.25 948.08 285.67 943.69 290.74 C 941.35 293.21 940.96 296.78 941.00 300.03 C 941.02 306.70 940.94 313.38 941.05 320.05 C 941.05 323.60 942.56 327.39 945.77 329.21 C 949.91 331.50 955.97 330.74 958.71 326.62 C 960.40 324.39 960.06 321.40 961.09 318.90 C 962.85 318.23 966.17 317.74 966.93 320.01 C 967.46 325.96 964.27 332.36 958.69 334.86 C 951.57 338.20 941.76 336.67 937.23 329.85 C 933.57 324.30 934.57 317.33 934.44 311.04 C 934.63 305.09 933.87 299.05 935.16 293.18 C 936.29 288.10 940.36 283.86 945.39 282.51 Z" />
<path fill="#010000" opacity="0.90" d=" M 989.29 282.32 C 995.40 280.84 1002.73 281.95 1006.94 287.01 C 1011.98 292.79 1010.67 300.99 1010.83 308.04 C 1010.50 315.37 1012.16 323.50 1007.95 330.04 C 1003.90 336.14 995.57 337.63 988.88 335.84 C 982.99 334.42 978.57 328.95 978.01 322.99 C 977.40 317.35 977.85 311.66 977.72 306.01 C 977.80 300.54 977.10 294.68 979.75 289.65 C 981.61 285.91 985.27 283.32 989.29 282.32 M 990.38 288.39 C 986.65 289.66 984.49 293.57 984.36 297.35 C 984.11 303.55 984.38 309.76 984.25 315.96 C 984.28 319.54 984.01 323.51 986.21 326.59 C 990.16 332.56 1001.08 331.60 1003.37 324.59 C 1004.84 319.56 1003.93 314.22 1004.17 309.05 C 1003.92 303.88 1004.86 298.52 1003.32 293.49 C 1001.54 288.34 995.13 286.70 990.38 288.39 Z" />
<path fill="#010000" opacity="0.90" d=" M 1072.85 287.87 C 1077.79 281.14 1087.99 280.10 1095.08 283.82 C 1100.50 286.73 1102.88 293.06 1102.82 298.95 C 1102.80 310.32 1102.91 321.70 1102.78 333.07 C 1103.06 336.63 1095.89 336.63 1096.21 333.04 C 1096.06 321.37 1096.27 309.70 1096.13 298.03 C 1096.23 294.12 1094.24 289.97 1090.45 288.51 C 1086.37 287.04 1081.00 287.65 1078.35 291.42 C 1075.70 295.02 1076.34 299.75 1076.26 303.94 C 1076.18 314.38 1076.51 324.83 1076.08 335.26 C 1074.02 335.51 1071.94 335.50 1069.91 335.20 C 1069.48 324.48 1069.85 313.74 1069.70 303.02 C 1069.62 297.85 1069.64 292.22 1072.85 287.87 Z" />
<path fill="#010000" opacity="0.90" d=" M 1126.37 282.44 C 1133.78 280.20 1143.32 282.96 1146.36 290.60 C 1147.25 293.25 1148.63 296.48 1147.17 299.16 C 1145.58 300.14 1143.34 300.19 1141.75 299.24 C 1140.81 296.48 1141.06 293.24 1138.97 290.97 C 1134.58 285.65 1124.50 287.18 1122.49 294.01 C 1121.16 299.92 1122.10 306.06 1121.83 312.06 C 1122.05 316.64 1121.01 321.63 1123.24 325.86 C 1126.07 331.33 1134.61 332.02 1138.68 327.61 C 1140.45 325.82 1140.91 323.27 1141.25 320.87 C 1141.14 317.72 1145.68 317.80 1147.46 319.33 C 1148.32 322.75 1147.11 326.42 1145.47 329.44 C 1139.54 339.26 1122.63 338.88 1117.29 328.67 C 1114.29 322.90 1115.34 316.22 1115.17 309.99 C 1115.38 304.04 1114.46 297.91 1116.23 292.13 C 1117.61 287.41 1121.64 283.67 1126.37 282.44 Z" />
<path fill="#010000" opacity="0.90" d=" M 492.13 283.04 C 493.68 282.54 495.35 282.59 496.92 283.03 C 498.01 284.05 497.76 285.63 497.86 286.98 C 497.82 301.64 497.81 316.31 497.86 330.97 C 497.78 332.41 498.00 334.04 497.00 335.24 C 494.97 335.85 491.08 336.18 491.22 333.09 C 491.08 317.72 491.23 302.33 491.15 286.96 C 491.28 285.65 490.90 283.95 492.13 283.04 Z" />
<path fill="#010000" opacity="0.90" d=" M 666.02 284.96 C 666.02 281.76 670.10 282.98 672.13 282.81 C 673.08 291.83 672.30 300.94 672.56 309.99 C 672.82 315.10 671.72 320.52 673.73 325.38 C 676.69 331.99 687.50 332.26 690.98 326.00 C 692.80 322.65 692.40 318.68 692.46 315.01 C 692.48 305.05 692.35 295.09 692.50 285.13 C 692.22 281.90 697.66 281.86 698.89 284.07 C 699.20 295.05 698.87 306.05 699.03 317.03 C 699.16 321.71 698.69 326.76 695.75 330.60 C 690.56 337.42 680.02 338.19 672.96 333.99 C 667.85 330.93 665.81 324.67 665.98 318.98 C 666.05 307.64 665.93 296.30 666.02 284.96 Z" />
<path fill="#010000" opacity="0.90" d=" M 769.02 284.96 C 769.03 281.75 773.12 282.98 775.16 282.83 C 776.05 292.84 775.33 302.93 775.55 312.97 C 775.72 317.88 774.60 323.71 778.30 327.66 C 783.51 333.33 795.00 330.19 795.24 321.98 C 795.78 309.73 795.20 297.43 795.50 285.17 C 795.20 281.90 800.66 281.84 801.90 284.09 C 802.18 295.37 801.88 306.68 802.03 317.97 C 802.14 322.58 801.38 327.56 798.28 331.18 C 792.93 337.47 782.83 338.06 775.97 334.00 C 770.86 330.94 768.82 324.69 768.97 319.01 C 769.05 307.66 768.93 296.31 769.02 284.96 Z" />
<path fill="#010000" opacity="0.90" d=" M 1024.06 282.98 C 1025.63 282.59 1027.31 282.59 1028.91 282.96 C 1029.97 284.02 1029.76 285.58 1029.85 286.95 C 1029.81 297.30 1029.85 307.64 1029.81 317.99 C 1029.84 320.62 1029.82 323.42 1031.19 325.77 C 1034.38 332.04 1044.84 332.10 1048.22 325.97 C 1049.75 323.27 1049.73 320.06 1049.75 317.05 C 1049.68 307.37 1049.76 297.70 1049.69 288.04 C 1049.73 286.43 1049.61 284.77 1050.21 283.25 C 1051.93 282.51 1054.04 282.39 1055.76 283.26 C 1056.44 284.74 1056.21 286.42 1056.31 288.01 C 1056.23 298.35 1056.31 308.70 1056.28 319.05 C 1056.26 323.41 1055.34 328.03 1052.35 331.37 C 1047.10 337.37 1037.49 337.95 1030.75 334.31 C 1025.64 331.53 1023.29 325.59 1023.21 320.02 C 1023.08 309.35 1023.24 298.69 1023.14 288.02 C 1023.24 286.33 1022.83 284.37 1024.06 282.98 Z" />
<path fill="#010000" opacity="0.90" d=" M 1161.05 283.03 C 1162.64 282.56 1164.36 282.59 1165.98 283.03 C 1167.14 284.42 1166.73 286.33 1166.87 288.00 C 1166.74 303.04 1166.93 318.08 1166.78 333.12 C 1166.90 336.11 1163.03 335.95 1161.08 335.20 C 1159.90 334.11 1160.22 332.43 1160.14 331.01 C 1160.19 316.34 1160.18 301.67 1160.15 287.00 C 1160.20 285.64 1159.99 284.09 1161.05 283.03 Z" />
</g>
</svg>
