<?xml version="1.0" encoding="UTF-8"?>
<!DOCTYPE svg PUBLIC "-//W3C//DTD SVG 1.1//EN" "http://www.w3.org/Graphics/SVG/1.1/DTD/svg11.dtd">
<!-- Creator: CorelDRAW X7 -->
<svg xmlns="http://www.w3.org/2000/svg" xml:space="preserve" width="7.08661in" height="4.72441in" version="1.1" style="shape-rendering:geometricPrecision; text-rendering:geometricPrecision; image-rendering:optimizeQuality; fill-rule:evenodd; clip-rule:evenodd"
viewBox="0 0 7087 4724"
 xmlns:xlink="http://www.w3.org/1999/xlink">
 <defs>
  <style type="text/css">
   <![CDATA[
    .fil0 {fill:#E20917}
   ]]>
  </style>
 </defs>
 <g id="Layer_x0020_1">
  <metadata id="CorelCorpID_0Corel-Layer"/>
  <g id="_2124066620800">
   <g id="__x0023_ffffffff">
   </g>
   <g id="__x0023_e20917ff">
    <path class="fil0" d="M1207 760c283,-293 681,-474 1088,-487 1353,0 2706,0 4059,0 0,241 0,483 -1,724 -1322,0 -2644,0 -3967,0 -339,-13 -677,184 -831,488 -100,190 -123,415 -79,624 41,205 164,389 330,514 148,110 327,185 512,191 374,0 748,0 1122,0 -1,-219 0,-437 0,-655 -136,-1 -272,0 -408,-1 0,-240 0,-480 0,-719 798,-5 1596,-1 2394,-2 309,1 619,-3 928,2 -1,700 1,1399 -1,2099 -241,0 -483,0 -725,0 -1,-460 0,-920 0,-1380 -124,0 -248,0 -372,0 0,348 0,696 0,1044 -1,112 4,224 -2,336 -240,-1 -479,0 -719,0 0,-460 0,-920 0,-1380 -124,0 -248,0 -371,0 -1,394 0,788 -1,1181 -1,66 3,133 -2,199 -576,-1 -1153,0 -1729,0 -138,6 -276,-11 -411,-42 -187,-43 -370,-112 -534,-214 -149,-92 -281,-212 -391,-349 -127,-156 -228,-335 -286,-529 -39,-133 -63,-271 -76,-409 -4,-104 -1,-209 11,-313 42,-348 219,-672 462,-922z"/>
    <path class="fil0" d="M733 3823c745,-1 1489,0 2234,0 73,1 146,-5 218,10 140,26 264,111 350,222 106,-137 270,-232 445,-232 791,-1 1583,0 2374,0 0,209 0,418 0,628 -1874,0 -3748,1 -5621,-1 0,-209 0,-418 0,-627z"/>
   </g>
  </g>
 </g>
</svg>
