<?xml version="1.0" encoding="UTF-8"?>
<!DOCTYPE svg PUBLIC "-//W3C//DTD SVG 1.1//EN" "http://www.w3.org/Graphics/SVG/1.1/DTD/svg11.dtd">
<!-- Creator: CorelDRAW X7 -->
<svg xmlns="http://www.w3.org/2000/svg" xml:space="preserve" width="7.08661in" height="4.72441in" version="1.1" style="shape-rendering:geometricPrecision; text-rendering:geometricPrecision; image-rendering:optimizeQuality; fill-rule:evenodd; clip-rule:evenodd"
viewBox="0 0 7087 4724"
 xmlns:xlink="http://www.w3.org/1999/xlink">
 <defs>
  <style type="text/css">
   <![CDATA[
    .fil7 {fill:#353537}
    .fil5 {fill:#3A4CAC}
    .fil4 {fill:#3C22AD}
    .fil6 {fill:#474647}
    .fil2 {fill:#B9047D}
    .fil1 {fill:white}
    .fil0 {fill:url(#id0)}
    .fil3 {fill:url(#id1)}
   ]]>
  </style>
  <linearGradient id="id0" gradientUnits="userSpaceOnUse" x1="33.437" y1="1326.45" x2="4374.96" y2="1150.58">
   <stop offset="0" style="stop-opacity:1; stop-color:#B6007C"/>
   <stop offset="1" style="stop-opacity:1; stop-color:#FC1B9E"/>
  </linearGradient>
  <linearGradient id="id1" gradientUnits="userSpaceOnUse" x1="6307.83" y1="1915.76" x2="3336" y2="1804.22">
   <stop offset="0" style="stop-opacity:1; stop-color:#3C39AC"/>
   <stop offset="1" style="stop-opacity:1; stop-color:#279ACB"/>
  </linearGradient>
 </defs>
 <g id="Layer_x0020_1">
  <metadata id="CorelCorpID_0Corel-Layer"/>
  <g id="_2124066600448">
   <path class="fil0" d="M42 344c308,4 625,0 934,0l1871 1 748 0c93,-1 317,-5 398,6 93,15 180,58 247,125 89,86 132,197 133,319 -122,4 -252,1 -376,2 -124,224 -260,470 -378,697 -3,-126 -3,-251 -2,-377 0,-82 3,-186 -5,-266 -14,-43 -37,-52 -84,-52 -65,0 -165,-14 -222,21 -13,8 -15,67 -17,81 -3,142 -1,286 -1,427l0 856c-104,6 -238,3 -343,3l-588 -1 -1748 0c-174,0 -307,0 -438,-132 -135,-137 -130,-274 -130,-450l1 -265 0 -995z"/>
   <path class="fil1" d="M262 797c136,3 275,-7 411,8 236,28 290,300 98,432 10,4 19,7 29,11 137,59 147,222 93,343 -14,24 -32,45 -54,63 -127,107 -327,66 -481,73 -26,2 -61,-1 -87,-4 -13,-68 -8,-244 -8,-319 1,-203 1,-405 -1,-607z"/>
   <path class="fil2" d="M463 1321c59,-1 168,-13 211,29 54,52 47,150 -2,203 -61,43 -132,38 -205,39 -4,-93 -4,-178 -4,-271z"/>
   <path class="fil2" d="M465 946c79,-1 212,-18 212,96 1,48 0,71 -34,107 -54,37 -115,32 -177,31 -5,-74 -2,-161 -1,-234z"/>
   <path class="fil1" d="M1771 799c63,-3 125,-2 188,3 9,64 5,443 16,461 54,21 92,-58 115,-95 28,-44 54,-87 87,-128 72,-6 148,-3 220,-1 -68,89 -130,201 -199,286l180 332 40 70c-78,0 -147,2 -225,-1 -38,-81 -118,-216 -163,-301l-61 1c-2,57 5,247 -12,290 -24,17 -151,13 -186,14l0 -931z"/>
   <path class="fil1" d="M2480 1037c65,-2 134,0 199,0 0,90 -12,454 13,515 6,13 14,20 28,25 42,15 105,-18 143,-37 5,-154 0,-346 -1,-501 67,-2 133,-2 200,-2l-3 193c0,91 0,181 1,271 0,70 3,157 -11,225 -57,3 -111,1 -167,0 -1,-15 -2,-26 -4,-41 -9,-8 -12,-1 -28,8 -57,36 -107,46 -173,49 -228,11 -196,-218 -196,-378l-1 -327z"/>
   <path class="fil1" d="M1036 1036c65,0 131,0 197,1 0,87 -13,459 13,516 5,11 14,18 26,22 45,15 105,-13 144,-35 7,-153 2,-345 2,-502 66,-1 132,-1 199,-1 -2,68 -2,137 -2,205l0 260c0,70 2,155 -10,223 -55,2 -110,3 -165,2l-6 -52c-108,80 -345,119 -387,-56 -16,-64 -9,-175 -9,-244 2,-113 1,-226 -2,-339z"/>
   <path class="fil3" d="M4371 799c91,-8 282,-3 382,-3l747 0 571 0c72,0 253,-5 315,9 73,16 217,89 251,158 107,125 98,270 98,422l-1 321c0,408 -5,831 1,1237 -45,0 -101,2 -145,0 -336,6 -693,0 -1031,0l-1705 0c-182,0 -301,-13 -441,-148 -158,-151 -126,-400 -126,-608 69,-1 319,32 325,-64 15,-210 -1,-424 8,-635 46,103 137,252 193,356 50,95 133,259 191,344 123,1 246,0 369,-1l-245 -439c-42,-76 -99,-185 -147,-255 19,-39 57,-99 79,-140 61,-111 123,-221 186,-331 36,-63 84,-167 125,-223z"/>
   <path class="fil4" d="M6386 805c73,16 217,89 251,158 107,125 98,270 98,422l-1 321c0,408 -5,831 1,1237 -45,0 -101,2 -145,0 -18,-6 -27,-5 -46,-5 -29,0 -276,-1 -288,-10 4,-2 20,-11 20,-15 10,-39 -13,-109 -17,-150 -2,-17 4,-18 13,-29 -1,-14 -5,-42 -14,-52l-8 11c-10,-122 -16,-187 16,-307 2,-14 6,-121 2,-128 -31,-50 -22,-88 -28,-145 -6,-51 3,-98 1,-148 -2,-75 -8,-151 -13,-227 -1,-12 -16,-11 -17,-12 -1,-12 4,-16 -4,-27 -7,9 -6,20 -8,33 -2,-15 0,-44 1,-60l1 19c2,-31 4,-81 19,-107 49,-31 41,-73 45,-129 14,-190 -9,-387 14,-575 3,-22 -19,-61 -41,-64 33,-18 105,-3 148,-11z"/>
   <path class="fil1" d="M5756 1250c489,-33 428,294 431,669 1,76 13,208 -24,271 -15,26 -168,16 -199,15 -1,-26 -4,-54 -7,-80 -53,37 -113,63 -176,76 -88,17 -167,-1 -241,-51 -87,-70 -107,-176 -98,-283 14,-156 112,-251 267,-269 84,-10 149,-3 232,6 -9,-50 -14,-102 -60,-134 -83,-57 -243,-9 -339,9 -3,-53 -20,-129 -32,-183 80,-23 163,-39 246,-46z"/>
   <path class="fil5" d="M5815 1749c42,-3 78,6 119,13l3 183c-38,38 -62,52 -114,66 -30,3 -50,8 -78,-11 -60,-41 -61,-149 -22,-204 24,-32 54,-41 92,-47z"/>
   <path class="fil1" d="M4879 1028c3,0 6,0 9,0 269,-5 258,-35 257,233 188,6 197,-26 194,185l-194 1 -1 289c0,61 -1,117 5,177 11,109 115,70 190,52l7 57c6,45 14,91 21,136 -170,73 -448,89 -480,-150 -13,-103 -5,-238 -5,-344 0,-212 -1,-424 -3,-636z"/>
   <path class="fil1" d="M4488 1263c63,-2 207,-16 249,22 28,71 11,400 13,502 3,117 4,283 -1,401 -55,0 -207,8 -245,-22 -25,-53 -15,-285 -15,-354l-1 -549z"/>
   <path class="fil1" d="M5968 2397c77,-35 156,-67 212,21l6 -6c2,9 21,55 20,59 -5,38 -7,81 -9,117 -1,27 5,147 -2,164 -5,-1 -4,0 -5,-2 -29,-5 -78,-3 -109,-3l-2 -54c0,-1 0,-2 0,-2 -31,-57 14,-165 -21,-211 -12,-16 -40,-12 -58,-11 -1,34 2,139 -4,165 -1,-12 -4,-21 -8,-33 -2,45 -1,101 -2,147l-105 -2c-2,-66 0,-135 -1,-201 -2,-89 1,-119 -95,-74 -5,76 -2,197 -2,276l-108 0 0 -378c26,0 55,0 82,1 14,1 13,6 22,19 19,0 71,-25 96,-27 37,-3 65,12 93,35z"/>
   <path class="fil5" d="M5990 2466c28,-9 49,-20 77,-11 20,20 13,199 12,238 0,-1 0,-2 0,-2 -31,-57 14,-165 -21,-211 -12,-16 -40,-12 -58,-11 -1,34 2,139 -4,165 -1,-12 -4,-21 -8,-33 -3,-40 0,-94 2,-135z"/>
   <path class="fil4" d="M6180 2418l6 -6c2,9 21,55 20,59 -5,38 -7,81 -9,117 -1,27 5,147 -2,164 -5,-1 -4,0 -5,-2 -9,-93 9,-246 -10,-332z"/>
   <path class="fil1" d="M5392 2360c95,-2 162,36 178,136 18,106 -7,235 -132,255 -40,1 -74,4 -111,-16 -97,-53 -101,-210 -51,-296 26,-46 66,-67 116,-79z"/>
   <path class="fil5" d="M5390 2449c87,-8 78,80 73,143 -2,31 -10,55 -35,74 -74,17 -73,-75 -72,-125 1,-37 7,-67 34,-92z"/>
   <path class="fil1" d="M5048 2361c83,5 103,38 138,109 -26,9 -61,23 -87,27 -9,2 -28,-58 -56,-53 -72,14 -64,173 -18,208 35,26 95,0 136,-5l4 6c0,27 0,54 0,81 -132,41 -268,21 -283,-143 -12,-125 30,-219 166,-230z"/>
   <path class="fil1" d="M4722 2587c113,-11 135,122 48,161 -42,3 -82,3 -102,-43 -8,-21 -9,-44 -1,-65 12,-30 27,-40 55,-53z"/>
   <path class="fil6" d="M439 3501c86,0 179,39 159,143 -15,77 -77,133 -139,176 60,27 128,68 128,141 -1,142 -141,276 -282,277 -40,0 -66,-3 -96,-32 -19,-19 -46,-59 -19,-80 36,-7 73,22 114,37 42,-7 59,-13 95,-33 63,-44 154,-162 59,-224 -53,-34 -138,-9 -197,5 -19,45 -73,233 -119,233 -17,-14 -25,-32 -37,-51 28,-105 85,-227 124,-329 31,-80 76,-153 84,-240 50,-17 74,-19 126,-23z"/>
   <path class="fil1" d="M436 3574c181,-1 9,192 -62,229 -27,8 -48,12 -76,17 20,-71 47,-130 83,-195 21,-39 18,-41 55,-51z"/>
   <path class="fil6" d="M6363 3537c70,17 45,78 21,124 -57,111 -94,231 -125,351 -8,31 4,125 -18,139 -21,2 -38,-3 -58,-8 -9,-33 -11,-58 -15,-92 -41,43 -58,62 -107,94 -104,54 -137,-53 -111,-137 31,-95 113,-190 220,-191 16,0 40,8 55,13 31,-75 81,-241 138,-293z"/>
   <path class="fil1" d="M6151 3888c15,-1 20,-3 34,2 28,43 -100,153 -133,178 -12,5 -13,6 -25,4l-5 -10c0,-56 78,-152 129,-174z"/>
   <path class="fil6" d="M3122 3740c84,-5 74,38 55,103 41,-14 89,-28 124,-5 136,85 -39,256 -148,267 -22,2 -48,7 -64,11 -15,23 -28,72 -35,99 -9,39 -29,166 -77,166 -11,-6 -17,-13 -23,-23 -37,-78 137,-518 168,-618z"/>
   <path class="fil1" d="M3225 3891c18,2 24,8 37,20 19,55 -82,108 -122,124 -18,4 -15,7 -30,2 -19,-54 70,-125 115,-146z"/>
   <path class="fil6" d="M5298 3766c49,5 103,64 141,97 -4,11 -7,23 -11,34 -19,65 -18,87 13,145 18,9 27,13 43,24 8,13 9,13 8,29 -15,33 -54,32 -83,20 -43,-18 -58,-55 -75,-95l-32 31c-27,26 -69,64 -103,78 -92,38 -157,-30 -108,-122 47,-88 110,-204 207,-241z"/>
   <path class="fil1" d="M5302 3852c114,28 -76,166 -108,190 -9,6 -9,7 -20,9 -14,-40 90,-174 128,-199z"/>
   <path class="fil6" d="M833 3771c61,-6 111,56 153,95 -20,45 -38,109 -12,155 18,32 35,36 68,44 -2,6 -3,12 -5,18 -10,34 -34,51 -69,38 -47,-17 -70,-60 -91,-102 -9,10 -19,22 -29,32 -80,79 -154,139 -235,28 22,-106 123,-256 220,-308z"/>
   <path class="fil1" d="M847 3851c17,2 22,5 34,17 20,55 -101,145 -140,172 -10,7 -9,7 -21,8 -16,-32 93,-174 127,-197z"/>
   <path class="fil6" d="M4106 3771c150,-9 122,162 113,255 17,1 56,-1 66,12 1,41 -39,96 -85,79 -34,-13 -45,-51 -59,-81l-32 33c-32,35 -82,84 -132,72 -63,-14 -59,-91 -47,-137 25,-99 91,-181 176,-233z"/>
   <path class="fil1" d="M4117 3855c92,27 -41,167 -79,194 -13,7 -19,11 -31,2 -15,-54 68,-162 110,-196z"/>
   <path class="fil6" d="M6540 3771c90,-6 120,83 115,159 -2,28 -11,65 -6,92 13,11 34,1 52,11 4,3 11,4 11,11 4,50 -59,95 -103,64 -26,-18 -30,-45 -36,-73l-35 31c-46,46 -148,126 -182,34 -43,-117 87,-284 184,-329z"/>
   <path class="fil1" d="M6542 3855c99,21 -45,168 -79,195 -7,3 -12,4 -19,5l-9 -5c-18,-56 66,-160 107,-195z"/>
   <path class="fil6" d="M1603 3771c36,-1 62,5 86,36 52,65 27,144 20,219 20,1 39,2 59,5l7 9c6,43 -42,91 -86,74 -34,-13 -44,-46 -57,-77l-29 28c-130,142 -231,73 -171,-101 24,-70 103,-161 171,-193z"/>
   <path class="fil1" d="M1608 3856c16,1 18,4 29,14 22,47 -72,154 -109,180 -12,5 -11,5 -23,5l-6 -7c-10,-61 61,-158 109,-192z"/>
   <path class="fil6" d="M5608 3794c124,16 60,106 25,179 66,-44 106,-92 181,-128 31,13 38,17 63,38 -9,78 0,142 9,218 3,36 -54,29 -78,14 -27,-54 -8,-91 -15,-149 -58,-27 -189,148 -232,153 -31,-9 -56,-45 -46,-76 28,-86 66,-163 93,-249z"/>
   <path class="fil6" d="M2346 3790c80,14 65,67 56,131 77,-60 150,-138 201,-7 -5,49 -20,99 -27,148 -3,27 2,48 -2,77l-9 5c-52,6 -60,-10 -72,-58 1,-44 16,-115 24,-160 -44,32 -182,163 -225,157 -56,-33 37,-236 54,-293z"/>
   <path class="fil6" d="M1238 3772c37,-3 55,-1 83,25 36,33 47,86 9,122 -13,12 -29,25 -47,25 -30,-23 -2,-71 -23,-95l-11 -1c-23,11 -43,29 -56,52 -12,21 -70,161 -27,172 47,12 105,-62 149,-79 16,2 30,4 41,16 10,49 -97,124 -140,136 -260,76 -137,-328 22,-373z"/>
   <path class="fil6" d="M4559 3759c78,9 122,68 60,143 -6,6 -18,2 -25,0 -19,-22 -6,-82 -62,-59 -49,20 -80,59 -101,106 93,51 110,39 131,153 -24,27 -36,34 -68,48 -53,15 -151,17 -160,-56 18,-53 127,36 138,-38 -21,-31 -112,-28 -120,-99 -12,-102 123,-182 207,-198z"/>
   <path class="fil6" d="M2911 3758c17,1 33,4 49,12 69,33 55,121 5,134 -40,-9 -13,-54 -39,-62 -56,-16 -118,65 -134,105 45,32 88,38 118,93 32,60 -5,88 -57,110 -59,14 -162,24 -150,-68 15,-13 111,20 131,-17 -14,-41 -109,-38 -123,-101 -21,-102 120,-183 200,-206z"/>
   <path class="fil6" d="M3838 3789c6,-1 17,-2 23,-2 15,1 30,8 40,19 32,38 2,114 -52,100 -15,-3 -21,-18 -29,-31 -94,83 -100,154 -164,252 -6,9 -37,-4 -46,-9 -4,-9 -10,-23 -8,-33 15,-69 47,-133 67,-203 -105,-26 -10,-112 45,-83 17,9 26,49 31,67 33,-39 47,-56 93,-77z"/>
   <path class="fil6" d="M6812 3874c30,-125 120,-266 158,-393 7,-23 30,-41 56,-35 55,43 -24,150 -45,199 -39,94 -81,188 -102,288 -6,28 -8,55 -38,65 -13,-2 -20,-4 -29,-14 -16,-39 -11,-70 0,-110z"/>
   <path class="fil7" d="M6812 3874c12,18 7,88 0,110 -16,-39 -11,-70 0,-110z"/>
   <path class="fil6" d="M3458 3837c36,1 48,22 69,47 -13,50 -64,225 -87,260 -129,39 3,-272 18,-307z"/>
   <path class="fil6" d="M2142 3815c109,31 -23,286 -59,306 -30,-14 -36,-25 -56,-50 19,-41 97,-234 115,-256z"/>
   <path class="fil6" d="M4744 3820c92,6 52,117 28,169 -17,37 -42,100 -65,131 -43,-5 -45,-22 -63,-57 41,-88 67,-151 100,-243z"/>
   <path class="fil6" d="M3523 3618c88,12 87,81 22,130 -13,5 -36,9 -48,1 -42,-25 12,-107 26,-131z"/>
   <path class="fil6" d="M2183 3617c20,3 44,27 53,44 24,38 33,66 -8,90 -87,-11 -98,-72 -45,-134z"/>
   <path class="fil6" d="M4801 3617c35,8 74,71 67,110 -9,15 -13,16 -30,24 -17,0 -43,-10 -55,-22 -39,-41 -12,-81 18,-112z"/>
   <path class="fil6" d="M6775 4054c12,0 24,2 35,7 58,26 17,72 -27,88 -82,11 -82,-60 -8,-95z"/>
  </g>
 </g>
</svg>
