<svg width="80" height="33" viewBox="0 0 80 33" fill="none" xmlns="http://www.w3.org/2000/svg">
<path fillRule="evenodd" clipRule="evenodd" d="M2.88866 21.7128V12.7328H10.3982V9.83545H2.88866V0.856323H0V21.7128C0.0168943 27.4651 4.66255 32.1241 10.3982 32.1409V29.2443C6.25821 29.2264 2.90647 25.8649 2.88866 21.7128ZM30.8324 21.7149C30.8279 25.8727 27.4683 29.2421 23.3228 29.2469V29.2465C19.1753 29.2465 15.8133 25.8744 15.8133 21.7149C15.8133 17.5554 19.1753 14.1835 23.3228 14.1835C27.4703 14.1835 30.8324 17.5554 30.8324 21.7149ZM23.3232 32.1431C29.0656 32.143 33.7207 27.4741 33.7207 21.7149C33.7206 15.9558 29.0652 11.287 23.3226 11.287C17.5801 11.2872 12.9252 15.9562 12.9253 21.7152C12.9254 27.4745 17.5808 32.1431 23.3232 32.1431ZM53.6714 24.3219H56.6965C55.3876 29.4063 50.5131 32.7214 45.319 32.0598C40.1247 31.3981 36.2314 26.966 36.2314 21.7148C36.2314 16.4635 40.1247 12.0315 45.319 11.3699C50.5131 10.7082 55.3876 14.0232 56.6965 19.1078H53.6714C52.3539 15.5266 48.5736 13.5002 44.8728 14.3914C41.172 15.2827 38.7212 18.8097 39.1687 22.6005C39.6163 26.3911 42.8206 29.2465 46.6265 29.2463C49.7702 29.2425 52.5798 27.2785 53.6714 24.3219ZM77.1118 21.7149C77.1072 25.8727 73.7478 29.2421 69.6021 29.2469V29.2465C65.4548 29.2465 62.0926 25.8744 62.0926 21.7149C62.0926 17.5554 65.4548 14.1835 69.6021 14.1835C73.7496 14.1835 77.1118 17.5554 77.1118 21.7149ZM69.6025 32.1431C75.345 32.143 80 27.4741 80 21.7149C79.9998 15.9558 75.3445 11.287 69.6019 11.287C63.8594 11.2872 59.2045 15.9562 59.2046 21.7152C59.2049 27.4745 63.8601 32.1431 69.6025 32.1431Z" fill="black"/>
</svg>
