<?xml version="1.0" encoding="UTF-8" ?>
<!DOCTYPE svg PUBLIC "-//W3C//DTD SVG 1.1//EN" "http://www.w3.org/Graphics/SVG/1.1/DTD/svg11.dtd">
<svg width="640pt" height="208pt" viewBox="0 0 640 208" version="1.1" xmlns="http://www.w3.org/2000/svg">
<g id="#14499aff">
<path fill="#14499a" opacity="1.00" d=" M 306.58 0.00 L 311.19 0.00 C 318.90 1.28 327.52 2.94 332.67 9.43 C 337.97 15.36 339.44 24.22 336.32 31.54 C 332.04 41.77 323.41 49.39 314.54 55.67 C 310.05 58.79 307.98 64.98 310.05 70.12 C 311.73 74.12 314.60 77.46 316.89 81.12 C 322.32 89.61 328.39 98.04 331.01 107.92 C 333.67 118.56 328.72 129.73 320.95 136.97 C 311.83 145.41 299.53 150.54 287.08 150.69 C 281.31 150.51 274.15 149.55 271.11 143.92 C 268.64 138.44 271.37 132.48 273.92 127.56 C 278.93 132.73 285.35 138.09 293.06 137.22 C 301.35 136.29 306.66 126.95 304.41 119.17 C 301.53 108.94 294.21 100.81 289.74 91.32 C 287.12 85.59 287.11 78.92 289.09 72.99 C 294.39 57.13 308.28 44.97 310.45 27.93 C 311.80 20.66 304.40 12.99 297.11 15.42 C 291.22 17.76 287.94 23.71 285.15 29.05 C 279.66 40.30 276.54 52.51 273.80 64.68 C 265.31 96.13 256.69 127.55 248.19 159.01 C 246.92 163.72 245.36 168.48 242.44 172.46 C 240.01 175.78 236.37 178.73 232.05 178.67 C 197.03 178.73 162.01 178.63 126.98 178.71 C 124.24 178.71 121.30 178.69 118.94 177.10 C 115.33 174.80 113.52 170.62 112.68 166.58 C 110.30 154.76 107.83 142.95 105.38 131.15 C 113.08 131.16 120.77 131.16 128.46 131.15 C 129.39 138.08 130.30 145.04 132.12 151.80 C 133.05 154.98 135.12 158.96 138.96 158.88 C 164.33 158.93 189.71 158.88 215.09 158.90 C 218.72 159.16 222.22 157.26 224.21 154.26 C 227.58 149.62 227.99 143.74 229.26 138.33 C 235.42 112.23 241.49 86.12 247.67 60.02 C 252.48 40.95 261.96 22.00 278.38 10.41 C 286.63 4.41 296.57 1.37 306.58 0.00 Z" />
<path fill="#14499a" opacity="1.00" d=" M 37.06 20.51 C 51.08 17.67 66.59 19.10 78.67 27.26 C 85.87 32.14 90.26 39.99 93.27 47.95 C 85.46 49.77 77.66 51.63 69.87 53.52 C 66.74 47.87 62.86 41.69 56.28 39.77 C 50.56 38.26 44.07 37.91 38.67 40.69 C 32.41 44.37 28.96 51.33 27.30 58.17 C 25.33 67.31 25.06 76.84 26.53 86.08 C 27.68 93.09 30.42 100.30 36.11 104.88 C 41.59 109.44 49.42 109.59 56.01 107.87 C 63.59 105.83 69.25 99.07 70.47 91.39 C 63.17 91.31 55.87 91.38 48.57 91.35 C 48.59 83.93 48.57 76.50 48.58 69.08 C 64.03 69.10 79.47 69.07 94.92 69.09 C 94.89 88.36 94.89 107.62 94.92 126.89 C 88.43 126.90 81.94 126.88 75.46 126.90 C 75.45 124.18 75.46 121.45 75.49 118.73 C 65.31 128.32 50.30 129.71 37.10 127.46 C 24.96 125.52 13.86 117.91 7.83 107.18 C 2.78 98.72 1.40 88.79 0.00 79.21 L 0.00 72.12 C 1.39 61.57 2.68 50.61 8.18 41.26 C 14.08 30.47 25.09 22.93 37.06 20.51 Z" />
<path fill="#14499a" opacity="1.00" d=" M 127.26 57.29 C 132.54 49.82 141.86 46.80 150.69 47.03 C 150.71 54.47 150.65 61.90 150.73 69.34 C 146.70 69.09 142.38 68.71 138.72 70.78 C 134.87 72.93 130.95 75.72 128.94 79.74 C 128.74 95.43 128.89 111.14 128.87 126.84 C 121.13 126.86 113.39 126.83 105.65 126.86 C 105.63 100.75 105.67 74.63 105.63 48.52 C 112.85 48.51 120.08 48.52 127.30 48.51 C 127.30 51.44 127.27 54.37 127.26 57.29 Z" />
<path fill="#14499a" opacity="1.00" d=" M 184.58 47.88 C 194.30 46.31 204.75 46.78 213.71 51.22 C 222.95 55.74 229.87 64.49 232.50 74.40 C 234.80 83.11 234.77 92.43 232.46 101.13 C 229.65 111.65 221.92 120.79 211.86 125.03 C 196.32 131.13 176.17 129.41 164.47 116.53 C 157.51 109.20 154.31 98.98 154.24 89.01 C 153.92 79.27 156.23 69.14 162.34 61.36 C 167.70 54.25 175.83 49.44 184.58 47.88 M 189.44 65.62 C 182.78 67.70 179.66 75.08 179.25 81.54 C 178.71 89.22 178.34 97.73 182.65 104.49 C 187.49 112.43 200.72 112.41 205.71 104.64 C 209.24 99.49 209.39 92.98 209.45 86.96 C 209.31 80.87 208.64 74.23 204.73 69.28 C 201.08 64.88 194.65 64.39 189.44 65.62 Z" />
<path fill="#14499a" opacity="1.00" d=" M 136.21 189.19 C 140.80 182.41 152.09 182.76 156.22 189.84 C 160.66 196.29 156.89 205.95 149.41 208.00 L 142.83 208.00 C 134.84 206.19 131.10 195.59 136.21 189.19 Z" />
<path fill="#14499a" opacity="1.00" d=" M 199.75 189.77 C 203.91 182.71 215.22 182.45 219.76 189.26 C 224.65 195.65 221.12 205.88 213.36 208.00 L 206.78 208.00 C 199.06 206.25 195.17 196.24 199.75 189.77 Z" />
</g>
<g id="#f78f1eff">
<path fill="#f78f1e" opacity="1.00" d=" M 603.58 23.60 C 610.86 23.59 618.14 23.60 625.42 23.60 C 625.37 31.90 625.45 40.20 625.38 48.50 C 630.25 48.52 635.12 48.52 640.00 48.51 L 640.00 66.44 C 635.12 66.44 630.25 66.43 625.38 66.45 C 625.45 79.63 625.39 92.82 625.40 106.00 C 625.51 107.51 625.19 109.63 627.05 110.21 C 631.36 111.40 635.82 109.94 640.00 108.85 L 640.00 127.05 C 634.43 128.14 628.74 128.46 623.08 128.33 C 617.70 128.24 612.03 126.77 608.10 122.90 C 604.48 119.28 603.52 113.94 603.58 109.02 C 603.62 94.83 603.55 80.64 603.63 66.45 C 600.05 66.43 596.48 66.44 592.91 66.42 C 592.91 60.46 592.91 54.50 592.91 48.53 C 596.48 48.50 600.05 48.52 603.63 48.50 C 603.55 40.20 603.62 31.90 603.58 23.60 Z" />
<path fill="#f78f1e" opacity="1.00" d=" M 360.24 54.36 C 366.05 49.57 373.47 46.92 381.01 47.08 C 389.04 46.70 397.46 50.06 401.97 56.93 C 409.43 49.89 419.80 46.46 429.99 47.12 C 436.64 47.13 442.93 51.07 446.26 56.75 C 448.80 61.02 449.74 66.07 449.71 70.99 C 449.70 89.61 449.69 108.23 449.72 126.85 C 442.28 126.85 434.84 126.84 427.40 126.86 C 427.40 108.90 427.42 90.95 427.39 73.00 C 427.58 69.68 425.62 65.94 422.13 65.33 C 415.84 64.04 410.45 68.65 405.78 72.20 C 405.82 90.41 405.77 108.63 405.81 126.85 C 398.38 126.86 390.95 126.83 383.51 126.87 C 383.50 108.93 383.52 91.00 383.51 73.07 C 383.67 69.68 381.79 65.82 378.16 65.28 C 371.85 64.08 366.53 68.64 361.87 72.19 C 361.88 90.41 361.85 108.63 361.89 126.84 C 354.46 126.86 347.04 126.83 339.61 126.87 C 339.60 100.75 339.64 74.63 339.59 48.51 C 346.49 48.51 353.39 48.51 360.29 48.51 C 360.27 50.46 360.26 52.41 360.24 54.36 Z" />
<path fill="#f78f1e" opacity="1.00" d=" M 462.80 62.83 C 469.45 52.89 481.27 47.53 493.01 47.16 C 502.21 46.87 512.25 47.46 519.92 53.14 C 526.80 58.51 529.13 67.67 529.42 76.01 C 529.53 89.35 529.43 102.68 529.46 116.01 C 529.47 118.13 529.75 120.22 530.02 122.32 C 529.49 123.78 529.26 125.32 529.16 126.86 C 522.34 126.84 515.51 126.83 508.69 126.87 C 508.31 125.11 507.95 123.35 507.59 121.60 C 498.42 126.99 487.43 129.65 476.86 127.76 C 468.88 126.30 461.65 120.27 459.75 112.24 C 458.09 104.87 459.69 96.54 464.92 90.91 C 470.24 85.21 477.63 81.84 485.09 79.92 C 492.04 78.16 499.06 76.49 506.24 75.97 C 506.15 72.60 506.90 68.44 503.96 66.00 C 499.97 62.98 494.47 63.16 489.84 64.33 C 484.90 65.66 481.39 69.71 478.35 73.57 C 473.20 69.93 468.02 66.36 462.80 62.83 M 484.83 98.84 C 480.92 102.23 481.69 109.91 487.01 111.42 C 494.20 113.16 500.61 108.46 506.34 104.80 C 506.34 100.26 506.33 95.73 506.35 91.19 C 498.94 92.69 490.62 93.44 484.83 98.84 Z" />
<path fill="#f78f1e" opacity="1.00" d=" M 564.38 57.30 C 569.58 49.79 578.93 46.83 587.73 47.03 C 587.75 54.46 587.67 61.90 587.77 69.34 C 583.47 69.01 578.87 68.77 575.07 71.15 C 571.53 73.32 567.76 75.95 566.01 79.83 C 565.80 95.49 565.95 111.17 565.94 126.84 C 558.19 126.87 550.43 126.83 542.68 126.86 C 542.67 100.75 542.70 74.63 542.67 48.51 C 549.91 48.51 557.15 48.51 564.40 48.51 C 564.39 51.44 564.35 54.37 564.38 57.30 Z" />
</g>
</svg>
