<?xml version="1.0" encoding="UTF-8" ?>
<!DOCTYPE svg PUBLIC "-//W3C//DTD SVG 1.1//EN" "http://www.w3.org/Graphics/SVG/1.1/DTD/svg11.dtd">
<svg width="400pt" height="204pt" viewBox="0 0 400 204" version="1.1" xmlns="http://www.w3.org/2000/svg">
<g id="#ffffffff">
</g>
<g id="#e1960bff">
<path fill="#e1960b" opacity="1.00" d=" M 83.82 5.64 C 90.83 4.28 97.80 2.57 104.94 2.01 C 110.96 0.99 116.96 2.52 122.98 2.64 C 142.49 4.99 161.57 12.68 176.48 25.61 C 186.56 33.72 194.09 44.44 200.35 55.65 C 200.86 56.69 201.18 57.80 201.30 58.96 L 201.30 59.89 C 199.91 60.34 198.53 60.78 197.14 61.21 C 196.48 61.34 195.15 61.60 194.49 61.73 C 193.24 58.11 191.71 54.58 189.64 51.36 C 183.87 42.07 176.93 33.42 168.57 26.33 C 151.01 10.83 127.20 3.69 104.05 3.52 C 97.22 3.23 90.59 5.12 83.82 5.64 Z" />
<path fill="#e1960b" opacity="1.00" d=" M 35.80 51.99 C 49.70 29.97 74.05 14.23 100.22 12.43 C 96.16 13.14 92.08 13.85 88.18 15.19 C 76.27 19.63 64.64 25.49 55.35 34.30 C 40.23 48.45 31.08 68.41 29.27 88.95 C 27.74 103.42 31.39 117.86 36.89 131.14 C 38.22 134.06 39.92 136.81 40.88 139.89 C 39.03 141.27 37.19 142.66 35.36 144.07 C 26.85 131.07 22.82 115.43 21.93 100.02 C 22.03 83.16 26.63 66.21 35.80 51.99 Z" />
<path fill="#e1960b" opacity="1.00" d=" M 196.65 66.56 C 199.02 65.45 201.42 64.38 203.79 63.27 C 207.29 70.77 208.91 78.99 210.38 87.09 C 213.18 100.26 211.06 113.91 207.70 126.77 C 203.98 140.97 196.61 153.96 187.26 165.20 C 163.84 192.23 125.10 205.69 90.16 196.75 C 75.75 193.90 62.80 186.47 50.95 178.07 C 65.29 186.81 81.32 193.13 98.10 194.90 C 106.74 196.19 115.46 194.95 124.01 193.65 C 147.49 189.11 169.24 175.77 183.48 156.49 C 197.20 138.53 203.42 115.42 202.30 92.99 C 201.67 83.97 199.53 75.11 196.65 66.56 Z" />
<path fill="#e1960b" opacity="1.00" d=" M 175.01 151.96 C 179.20 147.87 182.30 142.85 185.81 138.20 C 181.54 144.41 178.28 151.40 172.74 156.64 C 162.19 169.03 147.41 176.98 132.08 181.81 C 126.21 183.56 120.12 184.40 114.09 185.39 C 96.48 186.28 78.84 181.28 63.71 172.37 C 53.40 166.43 45.11 157.70 37.68 148.53 C 39.86 147.11 42.03 145.66 44.18 144.18 C 49.29 150.26 54.49 156.35 60.74 161.30 C 71.56 169.77 84.52 175.37 97.97 177.95 C 105.90 178.98 113.98 180.36 121.94 178.80 C 134.35 177.66 146.44 173.56 157.04 167.03 C 163.77 162.97 169.47 157.48 175.01 151.96 Z" />
</g>
<g id="#040404ff">
<path fill="#040404" opacity="1.00" d=" M 201.30 59.89 C 213.98 55.22 226.76 50.70 239.78 47.05 C 227.99 52.89 215.73 57.74 203.79 63.27 C 201.42 64.38 199.02 65.45 196.65 66.56 C 172.20 77.66 147.85 88.99 123.69 100.70 C 96.75 114.33 69.20 127.14 44.18 144.18 C 42.03 145.66 39.86 147.11 37.68 148.53 C 35.50 150.02 32.87 151.45 32.15 154.21 C 31.66 156.58 31.73 159.03 31.40 161.43 C 25.00 162.13 18.10 161.83 12.39 165.26 C 8.72 167.11 6.09 170.36 2.84 172.79 C 6.94 166.70 12.87 162.20 18.15 157.21 C 23.42 152.23 29.58 148.38 35.36 144.07 C 37.19 142.66 39.03 141.27 40.88 139.89 C 59.20 125.90 78.92 113.80 99.42 103.27 C 130.94 86.96 163.69 73.04 197.14 61.21 C 198.53 60.78 199.91 60.34 201.30 59.89 M 22.75 156.47 C 24.25 157.79 26.16 158.47 28.16 158.07 C 28.47 156.75 28.21 155.38 27.82 154.11 C 25.84 152.55 24.04 155.23 22.75 156.47 Z" />
<path fill="#040404" opacity="1.00" d=" M 228.26 71.58 C 231.71 68.29 234.31 63.57 239.16 62.18 C 237.43 66.24 233.61 68.79 231.19 72.40 C 234.64 75.62 238.85 78.38 241.03 82.68 C 235.37 81.74 232.55 76.10 228.13 73.06 C 227.97 76.05 227.99 79.05 228.00 82.05 C 227.32 82.06 225.94 82.07 225.26 82.08 C 225.10 75.70 225.55 69.32 225.35 62.94 C 225.96 63.01 227.18 63.15 227.79 63.22 C 228.12 65.99 227.97 68.80 228.26 71.58 Z" />
<path fill="#040404" opacity="1.00" d=" M 246.20 62.69 C 249.78 63.18 247.83 67.78 248.52 70.31 C 250.76 69.43 254.39 68.24 255.74 71.09 C 256.74 74.60 256.59 78.30 256.40 81.91 C 255.84 82.00 254.72 82.19 254.15 82.28 C 254.07 78.89 254.22 75.46 253.66 72.11 C 252.22 71.08 250.42 71.61 248.81 71.63 C 248.44 75.15 248.41 78.69 248.47 82.23 C 247.65 82.23 246.83 82.23 246.02 82.22 C 246.04 75.71 245.85 69.20 246.20 62.69 Z" />
<path fill="#040404" opacity="1.00" d=" M 306.20 62.74 C 306.71 62.91 307.74 63.25 308.25 63.42 C 308.89 69.62 308.49 75.88 308.67 82.11 C 308.00 82.10 306.67 82.08 306.00 82.07 C 306.09 75.63 305.80 69.18 306.20 62.74 Z" />
<path fill="#040404" opacity="1.00" d=" M 314.60 67.68 C 314.65 66.33 313.77 64.01 316.02 64.27 C 318.71 64.53 316.66 68.04 314.60 67.68 Z" />
<path fill="#040404" opacity="1.00" d=" M 347.92 65.39 C 348.85 64.91 349.78 64.43 350.78 64.07 C 351.69 64.93 351.76 66.06 350.93 66.99 C 349.70 68.18 348.87 65.87 347.92 65.39 Z" />
<path fill="#040404" opacity="1.00" d=" M 277.09 69.94 C 279.36 66.75 283.36 69.50 285.40 71.56 C 283.85 71.69 282.30 71.79 280.75 71.86 C 280.83 74.41 280.11 77.22 281.39 79.57 C 282.69 79.79 284.00 79.95 285.32 80.03 C 285.27 80.75 285.23 81.48 285.19 82.21 C 283.23 82.16 281.28 82.07 279.33 81.84 C 277.31 78.17 278.18 73.86 277.09 69.94 Z" />
<path fill="#040404" opacity="1.00" d=" M 336.19 70.39 C 337.32 68.54 339.15 67.06 340.86 69.30 C 342.33 69.56 343.60 70.22 344.32 71.57 C 342.81 71.66 341.29 71.72 339.78 71.74 C 339.67 74.48 339.66 77.23 339.92 79.96 C 341.36 79.95 342.81 79.93 344.27 79.90 C 344.20 80.64 344.15 81.37 344.09 82.10 C 342.09 82.08 340.10 81.99 338.12 81.82 C 336.42 78.19 337.56 74.08 336.19 70.39 Z" />
<path fill="#040404" opacity="1.00" d=" M 261.65 73.22 C 261.79 69.23 266.92 68.00 269.67 70.23 C 271.48 73.94 270.25 78.33 272.14 82.02 C 268.92 82.04 265.70 82.30 262.48 82.14 C 262.27 80.52 262.07 78.89 261.93 77.27 C 263.92 76.29 265.92 75.31 267.98 74.48 C 267.94 73.78 267.84 72.37 267.79 71.67 C 265.61 71.52 263.64 72.52 261.65 73.22 M 263.32 79.12 C 264.72 79.94 266.45 80.96 268.10 80.18 C 268.39 78.65 268.26 77.09 268.17 75.55 C 266.49 76.65 264.87 77.85 263.32 79.12 Z" />
<path fill="#040404" opacity="1.00" d=" M 289.54 69.70 C 290.34 69.69 291.15 69.68 291.96 69.69 C 292.06 73.13 291.57 76.70 292.73 80.02 C 294.19 80.06 295.65 80.09 297.12 80.12 C 297.68 76.67 297.61 73.16 297.57 69.68 C 298.38 69.68 299.19 69.68 300.01 69.69 C 300.00 73.74 299.99 77.80 300.02 81.85 C 297.09 82.00 294.16 82.17 291.22 82.07 C 289.12 78.28 289.72 73.84 289.54 69.70 Z" />
<path fill="#040404" opacity="1.00" d=" M 323.38 69.93 C 325.49 69.29 327.70 69.30 329.81 69.98 C 329.88 70.56 330.03 71.72 330.10 72.30 C 328.44 72.01 326.47 70.66 325.06 72.28 C 326.05 74.86 329.72 75.21 330.29 78.10 C 331.19 79.50 330.33 81.08 329.05 81.83 C 327.03 82.27 324.95 82.17 322.91 82.07 C 322.79 80.93 322.68 79.79 322.59 78.65 C 323.17 78.99 324.32 79.68 324.90 80.02 C 325.82 79.98 327.65 79.90 328.57 79.85 C 327.29 76.89 323.87 75.93 322.23 73.22 C 322.61 72.12 323.00 71.03 323.38 69.93 Z" />
<path fill="#040404" opacity="1.00" d=" M 356.95 68.98 C 360.94 69.69 361.08 74.24 362.58 77.24 C 363.82 74.76 364.73 72.13 365.96 69.65 C 369.51 69.94 369.07 74.83 370.67 77.28 C 372.67 74.72 372.49 69.70 376.46 69.52 C 374.98 73.70 373.30 77.81 371.57 81.89 C 371.23 81.88 370.55 81.86 370.21 81.86 C 368.80 79.25 368.39 76.23 366.99 73.60 C 365.42 76.43 364.39 79.50 363.01 82.41 C 359.78 78.64 358.59 73.57 356.95 68.98 Z" />
<path fill="#040404" opacity="1.00" d=" M 380.48 73.16 C 381.04 69.03 387.72 67.49 389.21 71.73 C 389.81 75.20 389.16 78.96 391.32 82.04 C 388.04 81.95 384.56 82.63 381.45 81.56 C 379.35 78.22 382.59 75.23 385.80 74.75 C 388.21 74.42 386.71 71.67 385.00 71.63 C 383.43 71.97 381.97 72.61 380.48 73.16 M 382.66 78.95 C 383.45 80.86 385.93 79.95 387.48 80.23 C 387.33 78.68 387.17 77.12 387.01 75.56 C 385.51 76.63 383.88 77.56 382.66 78.95 Z" />
<path fill="#040404" opacity="1.00" d=" M 314.30 69.99 C 315.04 70.01 316.52 70.07 317.27 70.10 C 317.05 74.11 316.95 78.12 317.22 82.12 C 316.49 82.07 315.04 81.97 314.32 81.92 C 314.34 77.94 314.34 73.96 314.30 69.99 Z" />
<path fill="#040404" opacity="1.00" d=" M 348.65 69.97 C 349.61 70.00 350.58 70.02 351.56 70.06 C 351.34 74.04 351.41 78.04 351.63 82.03 C 350.95 82.06 349.59 82.13 348.91 82.16 C 348.82 78.10 348.84 74.03 348.65 69.97 Z" />
<path fill="#040404" opacity="1.00" d=" M 225.55 92.70 C 226.16 92.88 227.37 93.25 227.97 93.43 C 228.45 98.84 228.21 104.28 228.29 109.71 C 231.04 109.65 233.79 109.30 236.53 109.64 C 236.77 110.22 237.24 111.37 237.47 111.95 C 233.46 112.10 229.45 112.25 225.44 112.13 C 225.32 105.65 225.66 99.17 225.55 92.70 Z" />
<path fill="#040404" opacity="1.00" d=" M 241.37 97.26 C 241.65 96.12 241.12 94.12 242.96 94.41 C 244.67 94.32 243.73 96.65 243.89 97.65 C 243.26 97.55 242.00 97.36 241.37 97.26 Z" />
<path fill="#040404" opacity="1.00" d=" M 251.96 97.95 C 254.14 99.17 256.82 99.67 258.49 101.66 C 256.97 101.80 255.45 101.90 253.93 101.98 C 253.73 104.65 253.66 107.34 253.91 110.01 C 255.48 109.98 257.05 109.96 258.62 109.93 C 258.20 112.09 255.97 112.99 254.00 112.41 C 251.46 112.21 250.94 109.11 250.99 107.07 C 251.34 103.90 249.01 100.39 251.96 97.95 Z" />
<path fill="#040404" opacity="1.00" d=" M 265.07 100.09 C 268.21 97.86 272.56 100.27 273.19 103.86 C 274.68 106.17 271.41 106.21 269.87 106.59 C 267.92 107.10 266.17 105.96 264.41 105.37 C 264.83 107.14 265.60 108.79 266.75 110.21 C 268.99 109.99 271.19 109.49 273.36 108.85 C 273.50 112.69 268.91 112.98 266.12 112.24 C 261.30 110.33 260.48 102.78 265.07 100.09 M 266.08 101.74 C 265.66 102.82 265.24 103.89 264.82 104.97 C 266.92 104.76 269.02 104.55 271.12 104.27 C 270.38 101.99 268.29 101.19 266.08 101.74 Z" />
<path fill="#040404" opacity="1.00" d=" M 281.50 101.39 C 282.72 98.49 289.02 98.99 287.14 102.69 C 285.37 102.41 283.61 102.12 281.86 101.78 C 280.68 105.20 280.99 108.84 281.12 112.38 C 280.32 112.36 279.52 112.35 278.72 112.33 C 278.42 108.07 278.46 103.79 278.42 99.52 C 279.19 99.98 280.73 100.92 281.50 101.39 Z" />
<path fill="#040404" opacity="1.00" d=" M 291.66 103.35 C 292.26 99.33 296.49 98.60 299.72 100.01 C 301.38 102.86 300.98 106.18 301.07 109.33 C 301.41 110.01 302.10 111.37 302.45 112.05 C 299.14 111.90 295.45 113.08 292.40 111.53 C 290.30 107.52 294.82 105.28 298.06 104.62 C 298.05 103.88 298.02 102.40 298.01 101.67 C 295.80 101.85 293.73 102.62 291.66 103.35 M 293.32 109.10 C 294.77 110.25 296.54 110.54 298.34 110.37 C 298.35 108.90 298.32 107.43 298.28 105.96 C 296.53 106.84 294.86 107.88 293.32 109.10 Z" />
<path fill="#040404" opacity="1.00" d=" M 307.60 99.41 C 308.68 99.79 309.75 100.19 310.83 100.59 C 312.45 99.63 314.30 99.55 316.13 99.69 C 316.04 100.46 315.87 101.99 315.78 102.75 C 313.94 102.21 312.01 101.89 310.31 100.98 C 310.11 104.68 309.88 108.38 310.00 112.09 C 309.32 112.05 307.97 111.97 307.29 111.93 C 307.45 107.76 307.61 103.59 307.60 99.41 Z" />
<path fill="#040404" opacity="1.00" d=" M 329.32 99.90 C 330.11 99.76 330.91 99.62 331.72 99.47 C 332.04 101.47 330.57 103.15 329.89 104.92 C 327.61 109.10 326.15 113.69 323.67 117.77 C 323.12 119.17 321.68 118.63 320.58 118.52 C 321.89 115.34 324.18 112.47 324.39 108.92 C 323.57 105.55 321.33 102.73 319.97 99.57 C 324.18 99.02 324.30 104.09 326.54 106.44 C 327.64 104.34 328.51 102.13 329.32 99.90 Z" />
<path fill="#040404" opacity="1.00" d=" M 241.44 99.91 C 242.08 99.94 243.38 99.99 244.03 100.01 C 243.96 104.07 244.07 108.12 244.27 112.16 C 243.57 112.10 242.18 111.97 241.49 111.90 C 241.52 107.90 241.68 103.91 241.44 99.91 Z" />
<path fill="#040404" opacity="1.00" d=" M 232.44 124.06 C 232.82 124.03 233.59 123.97 233.98 123.93 C 237.51 130.16 239.87 136.98 242.68 143.55 C 238.90 144.22 239.05 139.73 237.12 137.71 C 234.52 137.65 231.92 137.94 229.32 137.90 C 228.12 140.21 227.72 143.95 224.28 143.65 C 226.76 137.03 229.61 130.54 232.44 124.06 M 230.79 135.45 C 232.56 135.37 234.33 135.22 236.11 135.04 C 235.22 132.72 234.30 130.41 233.01 128.29 C 232.10 130.62 231.33 133.01 230.79 135.45 Z" />
<path fill="#040404" opacity="1.00" d=" M 304.79 123.92 C 305.36 124.00 306.51 124.17 307.08 124.26 C 307.12 130.51 307.36 136.79 306.99 143.04 C 304.26 143.43 301.06 144.11 298.65 142.35 C 295.23 140.22 294.74 134.58 297.93 132.05 C 299.77 130.41 302.34 130.41 304.59 129.74 C 304.81 127.80 304.74 125.85 304.79 123.92 M 298.74 134.86 C 296.43 138.19 301.18 142.96 304.43 140.64 C 304.91 137.90 304.59 135.10 304.28 132.35 C 302.25 132.64 299.77 132.75 298.74 134.86 Z" />
<path fill="#040404" opacity="1.00" d=" M 243.92 130.15 C 247.56 130.92 247.61 134.94 248.94 137.71 C 251.39 135.90 251.07 131.72 253.98 130.67 C 255.88 132.70 256.21 135.67 257.76 137.94 C 259.48 135.63 259.53 129.78 263.51 130.97 C 262.06 135.04 260.00 138.87 258.48 142.92 C 257.99 142.89 257.02 142.85 256.53 142.83 C 256.04 139.96 254.90 137.28 253.40 134.80 C 251.80 137.65 251.82 141.46 249.04 143.53 C 247.31 139.08 245.03 134.83 243.92 130.15 Z" />
<path fill="#040404" opacity="1.00" d=" M 267.45 134.33 C 267.96 131.93 269.86 130.62 272.06 129.94 C 273.68 130.76 276.10 131.38 276.23 133.56 C 276.63 136.86 276.85 140.19 277.56 143.45 C 275.05 143.39 272.54 143.48 270.04 143.38 C 267.10 143.05 267.13 138.47 269.42 137.30 C 270.79 136.11 272.62 135.91 274.32 135.52 C 273.70 134.43 273.09 133.34 272.45 132.26 C 270.78 132.95 269.12 133.66 267.45 134.33 M 269.56 140.24 C 270.82 141.02 272.06 142.40 273.67 141.54 C 275.03 140.11 273.81 137.94 273.39 136.35 C 272.06 137.59 270.80 138.90 269.56 140.24 Z" />
<path fill="#040404" opacity="1.00" d=" M 282.96 130.63 C 284.01 130.98 285.05 131.34 286.09 131.71 C 287.85 131.22 289.92 129.78 291.58 131.29 C 291.68 131.93 291.87 133.21 291.97 133.85 C 290.10 133.49 288.23 133.06 286.37 132.66 C 285.47 136.10 285.68 139.68 285.86 143.19 C 285.17 143.19 283.80 143.20 283.11 143.20 C 283.01 139.01 283.00 134.82 282.96 130.63 Z" />
</g>
</svg>
