<?xml version="1.0" encoding="UTF-8"?>
<!DOCTYPE svg PUBLIC "-//W3C//DTD SVG 1.1//EN" "http://www.w3.org/Graphics/SVG/1.1/DTD/svg11.dtd">
<!-- Creator: CorelDRAW X7 -->
<svg xmlns="http://www.w3.org/2000/svg" xml:space="preserve" width="11.811in" height="4.72441in" version="1.1" style="shape-rendering:geometricPrecision; text-rendering:geometricPrecision; image-rendering:optimizeQuality; fill-rule:evenodd; clip-rule:evenodd"
viewBox="0 0 11811 4724"
 xmlns:xlink="http://www.w3.org/1999/xlink">
 <defs>
  <style type="text/css">
   <![CDATA[
    .fil0 {fill:#1E1915}
   ]]>
  </style>
 </defs>
 <g id="Layer_x0020_1">
  <metadata id="CorelCorpID_0Corel-Layer"/>
  <g id="_2124036779760">
   <g id="__x0023_1e1915ff">
    <g>
     <path class="fil0" d="M5236 1141c40,-21 86,-13 129,-14 62,2 124,-5 185,6 41,10 42,59 43,94 1,429 1,858 2,1287 1,25 -2,53 13,76 21,26 58,29 85,47 20,14 21,45 11,66 -12,24 -43,22 -65,24 -65,0 -129,1 -194,-1 -27,-1 -61,-4 -74,-32 -12,-30 -8,-64 -9,-96 -121,117 -299,160 -464,146 -115,-9 -230,-55 -308,-142 -101,-111 -139,-266 -139,-414 -2,-171 62,-345 188,-464 129,-125 321,-180 497,-144 78,16 145,60 210,103 0,-91 0,-181 0,-271 0,-42 -8,-87 -39,-117 -25,-25 -61,-32 -88,-54 -26,-29 -19,-82 17,-100l0 0zm-264 576c-57,16 -110,51 -147,97 -77,91 -100,214 -101,330 -2,121 16,250 91,348 100,131 310,152 437,50 51,-41 88,-103 88,-169 2,-127 2,-253 4,-379 1,-42 2,-84 -13,-123 -23,-66 -78,-117 -143,-141 -68,-26 -145,-32 -216,-13z"/>
    </g>
    <g>
     <path class="fil0" d="M9944 1160c20,-29 60,-33 93,-33 68,0 135,-1 202,1 26,1 58,3 71,29 13,27 11,58 13,87 0,371 1,741 1,1111 2,71 -4,142 4,212 7,42 55,48 86,65 39,16 32,91 -14,92 -68,6 -136,1 -204,3 -33,-1 -75,2 -96,-30 -14,-30 -9,-66 -10,-99 -120,115 -295,159 -458,146 -114,-7 -228,-51 -307,-135 -99,-106 -140,-253 -145,-395 -7,-166 46,-336 159,-460 98,-110 242,-178 390,-184 83,-5 168,9 241,49 37,19 71,42 105,63 0,-87 0,-174 0,-261 0,-40 -4,-82 -29,-115 -21,-28 -56,-39 -85,-55 -32,-17 -36,-63 -17,-91l0 0zm-231 554c-70,15 -132,59 -173,117 -61,82 -83,186 -88,286 -4,106 5,216 52,312 32,68 87,125 157,153 89,36 195,34 279,-14 77,-41 133,-124 128,-213 1,-135 3,-270 4,-405 1,-79 -43,-157 -110,-197 -74,-45 -166,-57 -249,-39z"/>
    </g>
    <g>
     <path class="fil0" d="M1562 1295c79,-24 164,39 176,117 9,51 -16,103 -56,133 -68,55 -137,110 -205,165 -15,12 -29,28 -30,48 -4,22 12,40 25,56 90,108 135,251 127,391 -8,132 -64,259 -152,357 -87,97 -209,162 -338,179 -96,15 -196,3 -288,-29 -29,-11 -66,-6 -85,20 -35,45 -68,91 -102,136 -14,20 -32,45 -21,71 13,21 42,19 63,20 144,-5 288,-13 431,-6 72,3 144,5 213,26 84,26 162,80 207,157 78,130 33,316 -94,400 -74,50 -166,64 -254,62 -209,-6 -417,-6 -626,0 -50,0 -107,-3 -147,-38 -42,-40 -32,-115 13,-149 42,-35 100,-32 151,-26 173,23 347,25 521,27 63,-1 131,-7 184,-44 60,-41 59,-141 2,-184 -51,-38 -116,-43 -177,-50 -159,-19 -318,5 -476,9 -69,1 -143,-8 -197,-54 -50,-43 -58,-118 -40,-179 25,-85 86,-152 137,-222 20,-28 44,-58 41,-94 -5,-42 -36,-71 -61,-102 -105,-122 -143,-293 -116,-450 21,-131 93,-251 194,-337 168,-147 423,-190 626,-93 33,14 64,42 102,36 19,-2 27,-20 35,-34 43,-81 85,-162 127,-243 18,-36 51,-65 90,-76l0 0zm-554 424c-103,19 -189,87 -254,166 -74,90 -124,199 -142,313 -12,80 -3,166 37,237 55,97 164,158 274,164 86,6 171,-31 235,-88 82,-74 138,-173 175,-276 39,-111 52,-240 -1,-350 -55,-119 -196,-189 -324,-166z"/>
    </g>
    <path class="fil0" d="M5812 1610c13,-32 50,-43 82,-44 50,-2 100,-1 151,-1 26,1 55,1 79,14 24,15 25,46 26,71 2,83 1,166 1,248 55,-101 123,-198 214,-271 66,-54 163,-74 242,-38 50,19 88,68 86,123 2,72 -66,136 -138,131 -42,-1 -71,-42 -114,-38 -37,3 -63,32 -89,55 -90,92 -161,214 -160,346 -1,94 -2,188 -3,282 1,31 -3,64 9,93 17,30 55,34 82,50 27,12 30,50 17,74 -15,21 -44,20 -67,22 -106,0 -212,0 -317,0 -24,-2 -55,1 -71,-20 -13,-21 -13,-54 6,-71 25,-19 59,-21 83,-42 18,-19 16,-47 18,-71 2,-224 5,-447 6,-670 1,-42 -10,-87 -41,-117 -22,-24 -55,-33 -82,-50 -25,-15 -28,-50 -20,-76z"/>
    <g>
     <path class="fil0" d="M2233 1577c155,-26 320,-1 456,79 104,61 189,154 237,265 55,127 62,273 23,406 -33,113 -104,215 -197,287 -253,197 -656,171 -872,-69 -169,-182 -195,-474 -69,-685 88,-152 250,-255 422,-283l0 0zm69 122c-91,17 -166,81 -211,159 -76,130 -97,288 -69,435 18,98 62,195 142,259 79,64 190,83 286,51 80,-25 145,-85 185,-158 60,-107 74,-234 65,-354 -9,-115 -46,-234 -132,-315 -69,-67 -172,-95 -266,-77z"/>
    </g>
    <g>
     <path class="fil0" d="M3590 1577c151,-25 311,-2 445,73 103,57 189,147 239,254 64,132 73,288 30,428 -34,111 -103,211 -195,282 -252,197 -655,171 -871,-69 -168,-180 -195,-469 -72,-680 87,-155 250,-260 424,-288l0 0zm61 123c-89,20 -159,89 -201,167 -75,141 -89,310 -53,464 23,90 69,179 146,234 78,57 186,68 274,31 78,-32 136,-99 171,-173 51,-111 60,-237 49,-357 -12,-110 -51,-224 -135,-300 -67,-61 -163,-86 -251,-66z"/>
    </g>
    <g>
     <path class="fil0" d="M7181 1589c139,-28 287,-30 422,18 73,26 142,68 188,131 59,83 63,203 5,288 -54,80 -144,126 -232,159 -174,61 -360,78 -544,88 14,83 44,167 105,227 82,84 208,113 321,92 107,-14 203,-69 281,-141 23,-20 46,-49 81,-45 30,1 50,34 41,62 -15,54 -58,94 -100,129 -114,88 -257,138 -401,148 -172,11 -352,-46 -477,-167 -103,-99 -164,-239 -166,-382 -1,-140 34,-286 122,-398 85,-112 217,-182 354,-209l0 0zm-67 197c-85,103 -110,242 -107,373 127,-12 257,-27 375,-78 70,-30 138,-80 163,-155 22,-71 13,-158 -42,-211 -45,-43 -112,-53 -172,-48 -85,6 -165,52 -217,119z"/>
    </g>
    <g>
     <path class="fil0" d="M8252 1593c118,-29 242,-31 362,-15 117,16 234,60 317,147 61,64 78,156 79,242 1,186 0,371 0,556 1,25 0,55 21,72 22,19 52,23 77,38 30,23 20,87 -23,87 -67,7 -135,2 -202,4 -34,-2 -79,1 -98,-33 -12,-30 -8,-64 -9,-96 -104,102 -253,147 -397,149 -110,3 -226,-22 -312,-95 -90,-74 -134,-198 -110,-312 17,-86 74,-158 143,-209 94,-68 205,-107 318,-132 110,-24 224,-33 337,-32 -1,-63 -10,-130 -48,-183 -57,-84 -169,-115 -266,-96 -75,18 -122,84 -184,124 -47,35 -110,56 -167,37 -37,-12 -55,-53 -52,-90 0,-36 21,-69 48,-92 48,-38 107,-56 166,-71l0 0zm153 575c-59,41 -115,92 -141,161 -27,72 -8,157 45,212 93,98 269,97 363,0 50,-51 78,-123 78,-194 0,-90 1,-180 2,-270 -121,-2 -246,24 -347,91z"/>
    </g>
    <path class="fil0" d="M10903 1573c108,-16 220,1 318,48 64,31 126,74 165,135 23,34 42,79 20,118 -25,45 -93,51 -127,15 -46,-46 -64,-115 -118,-154 -92,-68 -229,-73 -321,-5 -52,38 -78,110 -58,172 17,48 64,76 108,94 108,45 225,58 335,97 62,22 124,56 163,111 44,64 52,148 39,223 -15,90 -72,169 -146,220 -141,95 -327,125 -490,75 -92,-29 -181,-80 -238,-159 -26,-37 -46,-82 -37,-128 6,-28 30,-52 59,-55 42,-7 84,20 103,57 28,48 48,102 90,138 57,53 139,63 213,54 62,-10 126,-40 158,-97 27,-48 31,-116 -9,-159 -42,-46 -104,-65 -162,-83 -106,-32 -219,-46 -320,-97 -59,-29 -110,-79 -130,-143 -34,-107 -12,-231 62,-316 81,-94 202,-144 323,-161z"/>
   </g>
  </g>
 </g>
</svg>
