<?xml version="1.0" encoding="UTF-8" ?>
<!DOCTYPE svg PUBLIC "-//W3C//DTD SVG 1.1//EN" "http://www.w3.org/Graphics/SVG/1.1/DTD/svg11.dtd">
<svg width="556pt" height="144pt" viewBox="0 0 556 144" version="1.1" xmlns="http://www.w3.org/2000/svg">
<g id="#0060afff">
<path fill="#0060af" opacity="1.00" d=" M 67.45 39.50 C 77.70 24.26 95.68 14.67 114.02 14.39 C 128.23 14.18 142.75 19.09 153.29 28.77 C 155.59 31.01 153.67 34.07 151.68 35.73 C 148.31 38.68 145.69 42.75 141.51 44.62 C 137.19 46.13 133.77 42.42 130.12 40.83 C 122.19 36.83 112.91 36.78 104.43 38.86 C 88.72 40.91 74.81 51.21 66.42 64.41 C 62.71 70.00 60.85 76.49 58.32 82.64 C 55.52 67.79 58.82 51.91 67.45 39.50 Z" />
<path fill="#0060af" opacity="1.00" d=" M 115.30 64.08 C 115.34 61.72 117.77 60.25 119.96 60.51 C 132.30 60.50 144.64 60.48 156.98 60.52 C 159.47 60.21 161.79 62.44 161.49 64.95 C 161.52 77.78 161.49 90.63 161.50 103.47 C 159.69 92.41 149.77 83.29 138.38 83.50 C 132.90 83.37 127.42 83.67 121.95 83.43 C 118.58 83.22 115.46 80.35 115.33 76.91 C 115.17 72.63 115.19 68.35 115.30 64.08 Z" />
</g>
<g id="#003c7fff">
<path fill="#003c7f" opacity="1.00" d=" M 66.42 64.41 C 74.81 51.21 88.72 40.91 104.43 38.86 C 94.58 42.67 85.91 50.26 82.47 60.45 C 79.80 67.53 80.17 75.26 81.86 82.51 C 83.29 94.96 90.37 106.24 99.41 114.67 C 106.61 121.32 115.59 125.78 125.00 128.38 L 125.96 128.66 C 111.48 131.30 96.00 128.43 83.68 120.31 C 70.54 111.92 61.19 97.95 58.32 82.64 C 60.85 76.49 62.71 70.00 66.42 64.41 Z" />
<path fill="#003c7f" opacity="1.00" d=" M 210.42 53.41 C 214.98 43.52 226.40 37.39 237.17 39.27 C 242.27 40.07 247.16 42.39 250.75 46.14 C 248.90 48.50 247.06 51.46 244.02 52.29 C 240.90 51.75 238.40 49.20 235.12 49.11 C 226.88 47.90 218.55 54.56 218.17 62.92 C 217.30 71.24 224.58 79.27 232.94 79.15 C 236.80 79.38 240.41 77.65 243.40 75.36 C 243.38 73.29 243.36 71.21 243.37 69.14 C 240.40 68.99 237.23 69.64 234.41 68.47 C 232.46 66.10 233.52 62.74 233.16 59.93 C 235.87 58.44 239.05 59.12 242.00 58.99 C 245.83 59.18 249.80 58.44 253.51 59.69 C 253.41 65.80 253.64 71.92 253.44 78.03 C 253.51 79.48 252.40 80.56 251.50 81.54 C 246.20 86.86 238.53 89.84 231.01 89.11 C 223.47 88.47 216.30 84.28 212.18 77.92 C 207.39 70.79 206.70 61.15 210.42 53.41 Z" />
<path fill="#003c7f" opacity="1.00" d=" M 439.50 39.76 C 442.63 40.26 446.84 38.51 449.28 40.91 C 449.51 56.72 449.31 72.55 449.37 88.37 C 445.99 88.03 440.85 89.88 439.66 85.40 C 433.37 91.51 421.95 90.01 417.38 82.56 C 412.49 74.55 412.98 62.78 419.93 56.09 C 425.24 51.34 433.79 51.05 439.54 55.22 C 439.46 50.06 439.51 44.91 439.50 39.76 M 429.21 61.40 C 423.59 63.95 423.04 71.61 425.35 76.62 C 427.32 81.25 434.19 82.12 437.42 78.38 C 440.47 74.57 440.53 68.85 438.31 64.62 C 436.62 61.44 432.52 60.03 429.21 61.40 Z" />
<path fill="#003c7f" opacity="1.00" d=" M 455.79 39.84 C 458.95 39.72 462.11 39.72 465.28 39.86 C 465.07 42.66 466.15 46.00 464.72 48.46 C 461.68 48.88 458.60 48.63 455.56 48.36 C 455.59 45.52 455.63 42.68 455.79 39.84 Z" />
<path fill="#003c7f" opacity="1.00" d=" M 268.46 58.85 C 271.09 54.64 275.84 51.89 280.87 52.71 C 280.88 55.87 280.87 59.02 280.84 62.17 C 276.69 61.89 272.13 63.30 270.21 67.29 C 267.43 74.02 269.96 81.50 268.35 88.43 C 265.23 88.37 262.12 88.36 259.00 88.37 C 259.00 76.62 259.00 64.87 259.00 53.12 C 262.07 53.13 265.14 53.13 268.21 53.12 C 268.40 55.02 268.51 56.94 268.46 58.85 Z" />
<path fill="#003c7f" opacity="1.00" d=" M 283.42 56.87 C 289.46 52.63 297.51 50.96 304.57 53.45 C 309.29 55.19 312.34 60.05 312.45 65.00 C 312.60 72.79 312.45 80.59 312.50 88.38 C 309.34 87.93 303.57 90.08 303.28 85.23 C 298.50 90.04 290.01 90.69 284.93 86.04 C 279.97 81.99 280.25 73.14 285.68 69.61 C 290.73 66.06 297.17 66.00 303.09 65.59 C 302.34 63.91 301.91 61.68 299.90 61.06 C 295.72 59.68 291.45 61.50 287.85 63.57 C 285.57 61.95 284.63 59.26 283.42 56.87 M 291.67 75.85 C 290.22 78.60 293.05 81.88 296.00 81.26 C 300.29 81.03 302.54 76.71 303.02 72.91 C 299.18 73.03 294.44 72.67 291.67 75.85 Z" />
<path fill="#003c7f" opacity="1.00" d=" M 328.24 57.30 C 333.07 50.68 344.93 50.29 348.56 58.32 C 352.78 52.27 362.20 50.02 368.08 54.92 C 371.34 57.58 371.88 62.08 371.98 66.01 C 372.05 73.46 371.97 80.92 372.00 88.38 C 368.82 88.02 363.76 89.72 362.33 85.81 C 361.69 78.89 362.54 71.90 361.94 64.98 C 361.82 63.31 360.77 61.41 358.89 61.41 C 354.10 60.78 350.60 65.54 350.30 69.90 C 349.88 76.05 350.24 82.22 350.13 88.38 C 346.83 88.39 343.53 88.39 340.23 88.32 C 340.25 81.23 340.28 74.13 340.25 67.04 C 340.19 65.01 340.09 61.89 337.52 61.50 C 332.71 60.49 328.89 65.23 328.47 69.63 C 327.95 75.86 328.38 82.13 328.26 88.38 C 325.00 88.38 321.75 88.38 318.50 88.37 C 318.50 76.62 318.49 64.87 318.51 53.12 C 321.39 53.12 324.28 53.14 327.17 53.10 C 327.54 54.50 327.89 55.89 328.24 57.30 Z" />
<path fill="#003c7f" opacity="1.00" d=" M 379.69 60.73 C 384.84 51.11 400.38 49.05 407.28 57.77 C 410.76 61.99 411.12 67.76 410.72 72.99 C 402.80 73.07 394.89 72.88 386.98 73.09 C 388.06 76.85 390.95 80.25 395.07 80.53 C 399.04 81.38 402.49 79.02 406.05 77.76 C 408.67 78.39 409.27 81.94 410.77 83.94 C 403.62 89.68 392.79 91.26 384.95 86.00 C 376.80 80.74 374.85 68.85 379.69 60.73 M 387.40 65.82 C 391.98 65.91 396.57 65.91 401.15 65.81 C 400.34 63.37 399.04 60.44 396.08 60.25 C 392.12 59.42 388.63 62.22 387.40 65.82 Z" />
<path fill="#003c7f" opacity="1.00" d=" M 471.44 56.87 C 477.68 52.55 486.13 50.80 493.30 53.75 C 498.02 55.80 500.73 60.94 500.62 65.97 C 500.65 73.44 500.61 80.92 500.62 88.39 C 497.37 87.98 491.96 89.94 491.15 85.37 C 486.33 90.43 477.39 90.53 472.49 85.55 C 468.40 81.48 468.38 73.80 473.06 70.16 C 478.12 66.15 484.92 65.96 491.09 65.63 C 490.52 64.13 490.35 62.10 488.65 61.41 C 484.21 59.31 479.42 61.74 475.51 63.86 C 474.02 61.61 472.68 59.26 471.44 56.87 M 480.20 75.28 C 479.28 76.53 479.02 78.48 480.18 79.68 C 481.97 82.07 485.80 81.58 487.81 79.71 C 489.94 78.05 490.62 75.33 491.13 72.81 C 487.42 73.02 483.26 72.81 480.20 75.28 Z" />
<path fill="#003c7f" opacity="1.00" d=" M 455.64 53.12 C 458.79 53.43 462.93 52.02 465.15 55.02 C 465.69 66.11 465.22 77.26 465.37 88.37 C 462.14 88.43 458.91 88.41 455.70 88.13 C 455.54 76.46 455.65 64.79 455.64 53.12 Z" />
<path fill="#003c7f" opacity="1.00" d=" M 279.75 104.76 C 284.25 104.88 289.36 103.92 293.23 106.85 C 297.80 110.21 297.70 117.91 293.18 121.27 C 289.37 124.26 284.24 123.21 279.76 123.36 C 279.73 117.16 279.75 110.96 279.75 104.76 M 283.00 107.71 C 283.00 111.94 283.00 116.18 283.00 120.42 C 285.48 120.26 288.24 120.82 290.44 119.37 C 294.18 117.21 294.16 110.75 290.30 108.70 C 288.14 107.31 285.43 107.86 283.00 107.71 Z" />
<path fill="#003c7f" opacity="1.00" d=" M 308.75 104.75 C 309.60 104.75 311.29 104.75 312.13 104.75 C 312.12 110.96 312.12 117.17 312.13 123.38 C 311.29 123.37 309.60 123.36 308.76 123.36 C 308.74 117.16 308.75 110.96 308.75 104.75 Z" />
<path fill="#003c7f" opacity="1.00" d=" M 327.67 106.68 C 331.47 103.41 337.26 103.97 341.11 106.84 C 340.47 107.65 339.82 108.45 339.18 109.24 C 336.77 107.88 333.77 106.65 331.10 108.08 C 326.65 110.35 326.45 117.75 331.01 120.00 C 333.27 121.35 335.94 120.36 338.31 119.92 C 338.38 118.57 338.47 117.23 338.57 115.88 C 336.97 115.88 335.38 115.87 333.79 115.87 C 333.77 115.15 333.75 113.72 333.73 113.00 C 336.40 113.00 339.07 113.00 341.75 113.01 C 341.74 115.64 341.75 118.28 341.80 120.91 C 338.09 123.63 332.81 124.80 328.69 122.30 C 323.16 119.25 322.74 110.49 327.67 106.68 Z" />
<path fill="#003c7f" opacity="1.00" d=" M 354.13 104.80 C 354.96 104.78 356.63 104.72 357.46 104.70 C 357.54 110.93 357.50 117.16 357.49 123.39 C 356.65 123.38 354.97 123.36 354.13 123.36 C 354.12 117.17 354.12 110.99 354.13 104.80 Z" />
<path fill="#003c7f" opacity="1.00" d=" M 369.14 104.78 C 374.17 104.73 379.20 104.75 384.23 104.75 C 384.24 105.73 384.26 106.72 384.27 107.70 C 382.29 107.73 380.31 107.81 378.33 107.85 C 378.41 113.02 378.37 118.19 378.37 123.36 C 377.53 123.37 375.84 123.38 375.00 123.38 C 375.00 118.17 375.00 112.96 375.00 107.75 C 373.03 107.75 371.06 107.75 369.10 107.76 C 369.11 107.01 369.13 105.52 369.14 104.78 Z" />
<path fill="#003c7f" opacity="1.00" d=" M 399.96 104.62 C 400.71 104.62 402.22 104.63 402.97 104.63 C 405.69 110.88 408.51 117.08 411.16 123.36 C 410.31 123.37 408.62 123.38 407.78 123.38 C 407.11 121.88 406.44 120.37 405.78 118.87 C 402.87 118.87 399.96 118.87 397.05 118.88 C 396.38 120.38 395.70 121.88 395.04 123.38 C 394.22 123.38 392.58 123.37 391.77 123.37 C 394.43 117.09 397.21 110.86 399.96 104.62 M 401.31 108.56 C 400.32 111.06 399.27 113.54 398.18 116.00 C 400.35 116.00 402.52 116.00 404.70 116.00 C 403.58 113.52 402.46 111.03 401.31 108.56 Z" />
<path fill="#003c7f" opacity="1.00" d=" M 422.35 104.88 C 423.15 104.82 424.76 104.68 425.57 104.62 C 425.68 109.87 425.60 115.12 425.63 120.37 C 428.93 120.37 432.22 120.37 435.52 120.39 C 435.51 121.14 435.50 122.63 435.49 123.38 C 431.11 123.38 426.75 123.37 422.38 123.39 C 422.35 117.22 422.39 111.05 422.35 104.88 Z" />
</g>
<g id="#07054eff">
<path fill="#07054e" opacity="1.00" d=" M 81.86 82.51 C 84.75 89.55 89.04 96.20 95.49 100.46 C 108.18 109.53 126.71 108.19 138.32 97.92 C 138.41 93.12 138.36 88.31 138.38 83.50 C 149.77 83.29 159.69 92.41 161.50 103.47 C 161.73 105.62 160.72 107.70 159.31 109.28 C 151.70 118.24 141.27 124.74 129.90 127.73 C 128.30 128.05 126.64 128.73 125.00 128.38 C 115.59 125.78 106.61 121.32 99.41 114.67 C 90.37 106.24 83.29 94.96 81.86 82.51 Z" />
</g>
</svg>
